/* XPM */
static char *e346028bc0d2415fb3da9e7e27fb88376SjIrGaemPekDAIq[] = {
/* columns rows colors chars-per-pixel */
"72 72 216 2 ",
"   c #000000",
".  c #0A0B06",
"X  c #080809",
"o  c #0C0D0A",
"O  c #180B09",
"+  c #1F0C0A",
"@  c #0E100A",
"#  c #14130C",
"$  c #050E13",
"%  c #0B1419",
"&  c #181916",
"*  c #260D09",
"=  c #340E07",
"-  c #360E08",
";  c #20140B",
":  c #39110B",
">  c #1C2316",
",  c #35240E",
"<  c #3A260F",
"1  c #2C2E13",
"2  c #23291A",
"3  c #2E3917",
"4  c #1F1F21",
"5  c #2B3021",
"6  c #34382B",
"7  c #383D30",
"8  c #421209",
"9  c #5C1A0C",
"0  c #6D1604",
"q  c #621B0C",
"w  c #6B1B0B",
"e  c #721A0A",
"r  c #432A12",
"t  c #492F13",
"y  c #5A3718",
"u  c #6B2717",
"i  c #643E15",
"p  c #56352B",
"a  c #723728",
"s  c #3A491B",
"d  c #3C5B25",
"f  c #3C4231",
"g  c #6B4417",
"h  c #6A411C",
"j  c #73491C",
"k  c #504920",
"l  c #455521",
"z  c #44493B",
"x  c #4B553B",
"c  c #724637",
"v  c #754839",
"b  c #715232",
"n  c #596F2B",
"m  c #5C742B",
"M  c #637B35",
"N  c #565E4A",
"B  c #715345",
"V  c #5B654A",
"C  c #5C6849",
"Z  c #576957",
"A  c #686E53",
"S  c #786D52",
"D  c #577F71",
"F  c #707A61",
"G  c #8D2611",
"H  c #AC280D",
"J  c #A72C13",
"K  c #B83117",
"L  c #D52904",
"P  c #D72E0A",
"I  c #D6310E",
"U  c #C13315",
"Y  c #C93717",
"T  c #D73713",
"R  c #D83713",
"E  c #D73916",
"W  c #DB3814",
"Q  c #D63C1A",
"!  c #D83C1A",
"~  c #F3340A",
"^  c #E33A14",
"/  c #E83B16",
"(  c #EB3C15",
")  c #F23D15",
"_  c #FD3F14",
"`  c #D13F23",
"'  c #945C24",
"]  c #B46E2B",
"[  c #FD4217",
"{  c #FD4219",
"}  c #FF491A",
"|  c #D34324",
" . c #D6482A",
".. c #DE5636",
"X. c #F84822",
"o. c #C77A2E",
"O. c #FD613B",
"+. c #8B5344",
"@. c #B16B57",
"#. c #B46D59",
"$. c #DB7057",
"%. c #E47659",
"&. c #C57C66",
"*. c #698534",
"=. c #6B8930",
"-. c #6B8A31",
";. c #749435",
":. c #779838",
">. c #7FA13C",
",. c #76845D",
"<. c #639658",
"1. c #6B9B5D",
"2. c #78985D",
"3. c #6DA353",
"4. c #79A856",
"5. c #74A359",
"6. c #7BA45D",
"7. c #7EA85C",
"8. c #5E8C67",
"9. c #5D8272",
"0. c #698D6B",
"q. c #748867",
"w. c #7D8D64",
"e. c #699563",
"r. c #6B926B",
"t. c #749B65",
"y. c #7A9F65",
"u. c #74966D",
"i. c #7C9469",
"p. c #75986B",
"a. c #7C9C6B",
"s. c #698C71",
"d. c #6A8874",
"f. c #789672",
"g. c #7C9671",
"h. c #7CA362",
"j. c #7FA169",
"k. c #84A83D",
"l. c #86AC3E",
"z. c #81935D",
"x. c #87AA42",
"c. c #8EB444",
"v. c #94BD44",
"b. c #83AB5D",
"n. c #8AAE5D",
"m. c #8AB257",
"M. c #8CB15D",
"N. c #97BF53",
"B. c #92B55E",
"V. c #9BBA5C",
"C. c #A2BF5D",
"Z. c #839562",
"A. c #839D6A",
"S. c #889A69",
"D. c #849876",
"F. c #849C74",
"G. c #82A563",
"H. c #8CA363",
"J. c #85AA61",
"K. c #8CAC63",
"L. c #85A26B",
"P. c #8CA36C",
"I. c #8EAA6A",
"U. c #92AE66",
"Y. c #91A66B",
"T. c #93AC6A",
"R. c #99AD6C",
"E. c #8FB062",
"W. c #95B167",
"Q. c #96B267",
"!. c #97B267",
"~. c #98B366",
"^. c #99B465",
"/. c #9DB665",
"(. c #9EB864",
"). c #96B168",
"_. c #98B268",
"`. c #9AB369",
"'. c #8CA271",
"]. c #A3BC62",
"[. c #A0B669",
"{. c #A1B86A",
"}. c #FF825F",
"|. c #E58669",
" X c #E9896D",
".X c #E88D72",
"XX c #F18E71",
"oX c #EB9277",
"OX c #EB967A",
"+X c #FA9576",
"@X c #FF9C7B",
"#X c #FFA17E",
"$X c #9CC44D",
"%X c #9DC84A",
"&X c #9BC450",
"*X c #A0CC4A",
"=X c #A7C75A",
"-X c #B6CE5C",
";X c #ABD757",
":X c #B1DE5D",
">X c #B7E55D",
",X c #B9E95F",
"<X c #A9C261",
"1X c #B8E762",
"2X c #BBEB61",
"3X c #C2F365",
"4X c #C6F966",
"5X c #C9FC66",
"6X c #CDFF6A",
"7X c #D4FF6C",
"8X c #DBFF71",
"9X c #EFA287",
"0X c #FFA281",
"qX c #FFAC8A",
"wX c #FFB08F",
"eX c #FFBA94",
/* pixels */
"!.!.~.T.R.h.E._.!._.~.^.!.!.W.).!.!.!.!.!.!.!.!.!.!.!.!.!.!.!.!.!.!.!.!.!.!.!.!.!.!.!.!.!.!.!.!.!.!.!.!.!.!.!.!.!.!.!.!.!.!.!.!.!.!.!.!.!.!.!.!.",
"!.!.^.T.D.p.b.!.).!.!.!.!.!.).!.!.!.!.!.!.!.!.!.!.!.!.!.!.!.!.!.!.!.!.!.!.!.!.!.!.!.!.!.!.!.!.!.!.!.!.!.!.!.!.!.!.!.!.!.!.!.!.!.!.!.!.!.!.!.!.!.",
"!.!.!.^.I.D.h.!._.!.!._.!.!.^.).!.!.!.!.!.!.!.!.~.).!.!.!.!.!.!.!.!.!.!._.!.!.!.!.!.!.!.!.!.!.!.!.!.!.!.!.!.!.!.!.!.T.!.!.!.!.!.!.!.!.!.!.!.!.!.",
"!.!.!.!.^.^.^.!.!._.).!.!.!.!.).!.!.!.!.!.!.!.!.).~.~.!.!.!.!.!.!.!.!.W.U.K.~.!.!.!.!.!.!.!.!.^.!.!.!.!.!.!.!.!.!.!.(.^.!.!.!.!.!.!.!.!.!.!.!.!.",
"!.!.!.!.!.!.!.!.!.!.!.).!.!.!.!.!.!.!.!.!.!.!.!.~.).W.~.!.!.!.!.~.~.^.`.7.b.R.T.!.!.!.!.!.!.!.!.!.!.!.!.U.).!.!.!.~.(./.!.!.!.!.!.!.!.!.!.!.!.!.",
"!.!.!.!.!.!.!.!.!.!._._.!.!.!.!.!.!.!.!.!.!.!.)._.U.I.!.!.!.!.!.)._.~._.b.J.K.K.!.!.!.!.!.!.!.I.).!._.).U.).!.!.!.~.U.T.!.!.!.!.!.!.!.!.!.!.!.!.",
"!.!.!.!.!.!.!.!.!.).E.M._._.!.!.!.!.!.!.!.!.!.~.~.T.I.U.W.!.!.!.~.).!._.b.G.p.L.~.!.!.!.!.U.I.!.).^.^.K.T.!.!.!.!.!.!.!.!.~.~.~.!.!.!.!.!.!.!.!.",
"!.!.!.!.!.!.!.!._._.J.b.(.I.T.^.!.!.!.!.!.!.!.!.~.).!.!.!.!.!.!.).~.!.!.!.T.I.T.!.!.!.!.I.U.!.!.!.~.!.T.!.!.!.!.!.!.~.)._.b.K.).!.!.!.!.!.!.!.!.",
"!.!.!.!.!.!.!.!.~.(.j.f.b.G._._.!.!.!.!.!.!.!.!.!.!.^.!.^.!.!.!._.!.!.!._.~.^.~.!.!.!.!.!.!.!.!.!.!.T.!.~.!.!.!.!.!.!.!._.b.b.J.!.!.!.!.!.!.!.!.",
"!.!.!.!.!.!.!.!.)./.P.a.a.a._.^.!.!.!.!.!.!.!.!.!.!._.K.!._.!._.!.!.T.!.!.!._.~.!.!.!.!.!.T.!.!.!.~.~.!.!.!.!.!.!.!.!.!.~._.6.K.!.I.!.!.!.!.!.!.",
"!.!.!.!.!.!.!.!._.!.!.~._._._.!.!.!.!.!.!.!.!.!.!.!.!.K.6.T.`.K.5.I.T.~.!.!.~.).!.!.!.~.!.!.!.!._._.!.!.!.!.!.!.!.!.!.!.^._.u.a.t.I.~.!.!.!.!.!.",
"!.!.!.!.!.!.!.!.!.~.~._.!.~.!.!.!.!.!.!.!.!.!.!.!.!.!.).^.m.T.b.b.P.~.!.!.~.).~.!.~.~.T.U.U.).~.!.E.!._.!.!.!.!.!.!.!.!._._.L.A.A.I.~.!.!.!.!.!.",
"!.!.!.!.!.!.!.!.!.!.U.~.!.!.!.!.!.!.!.!.!.!.!.!.!.!.!.I.-X$Xy.A.P.T.!.!.!.!.~.).!.!.!.T.!.!.!.).!.b.^.!.!.!.!.~.^.~.!.!.).!.^./.^.~.!.!.!.!.!.!.",
"!.!.!.!.!.!.!.!.~.T.K.~.!.!.!.!.!.!.!.!.!.!.!.^.!.!.^._.K.t.a.d.P./.~.~.!.!.).~.)._.E.M.^.!.~.).M.K.!.!.~.!.).!.^.!.!.!.!.!.!.!.!.!.!.!.!.!.!.!.",
"!.!.!.!.!.U.!.~.).K.K.~.!.!.!.!.!.!.!.!.!.!.!.!.!.!.).^.T.s.f.I.!.!.!.~.!.~._.).!._.!.n.M._.!.n.4.).K.n.~.!.!.!.!.!.!.!.!.!.!.!.!.!.!.!.!.!.!.!.",
"!.!.!.!.!.!.!._._.I.I.~.!.!.!.!.!.!.!.!.!.!.!.n.!._.!.)./.T.U.(.~.!.!.U.5 6 6 5 7 2 ,.(.N.U._.b.r.!.M.).K.K.~.!.!.!.!.!.!.!.!.!.!.!.!.!.!.!.!.!.",
"!.!.).I.U.!.).!.^.L.a.~.~.!.!.!.!.!._.~.~.^.!.b.U.~.!.!.!.~.^.!.!.!.~.I.            A _.B.K./.V.a.K.M._.4.b._.!.!.!.!.!.!.!.!.!.!.!.!.!.!.!.!.!.",
"!.!.).U.!.).!.~.^.A.g.~.~.!.!.~.!.!.U.~.T.T.~.5.1.T.~.!.!.!.!.!.!._.^.L.#           q.).u.L.h.r.U.e.f.M.1.I./.).!.!.!.!.!.!.!.!.!.!.!.U.).!.!.!.",
"!.!.!.!.!.!.!.!.!.T.P.^._._.!.).!.!.!.~.T.P.!.J.p.T.~.!.!.!.!.!.!.~.).I.@     r h i b F Z q.L.u.T.u.L.M.L.Y.~.!.!.!.!.!.!.!.!.!.!.!.^.^.!.!.!.!.",
"!.!.!.!.!.!.!.!.!.~.^._.K.J._.~.!.!.!.!._.~.!.~.^.~.!.!.!.!.!.!.!.!.).T.#   X j o.o.y     o _.^.~./.~._.~.!.!.!.!.!.!.!.!.!.!.!.!.!.^.(.^.!.!.!.",
"!.!.!.!.!.!.!.!.!.!.)._.J.V.].T.~.!.).).!.!.!.!.!.!.!.!.~._.~./.!.~.).~.@     j ] ] i     7 !.~._.~.!.!.~.).!.!.!.!.~.U.T.).~.~.!.!.!.!.T.!.!.!.",
"!.!.!.!.!.!.!.!.!.)._.!._.V.^._._._.K.K._._._.Z.Z.Z.Z.Z.Z.Z.Z.Z.Z.z.S.Z..     y ' ' t     7 !.!.!._.!.!.!.!.!.!.!.!.T.<XC.T.~._.!._.!.!.~.!.!.!.",
"!.!.!.!.!.!._.!.J.^.!.).{.6.b.J.7._.b.7._._.U.                                < y h <     6 !.!.!.!.!.!.~.~.!.!.!.!.T./.=X].G.E._.^.!.!.~.!.!.!.",
"!.!.!.!.!.!.!.!.J.n.K.J.^.a.1.4.U._.W.4.K._.!.                                r g h <     z !.!.!.!.!.~.T.!.~.!.!.!._.T.[.n.h.T.P.!.~.!.!.!.!.!.",
"!.!.!.!.!.!.!.~.K.h.).M.t.9.e.E._._.!.3.6.R.H.& . . @ @ . . . . o @ @ o       r g g <     z ).U.U.).!.^.'.P.^.!.!.!.).~.~.u.L.T.P.~.~.!.!.!.!.!.",
"!.!.!.!.!.!.!.!.I.j.!./.L.s.u.T._._.U.2.@ @ & ;.;.-.*X,X:X:X>X:X:X:X2X;X@     r g g <     X . o # H.!.!.!.).!.!.!.!.^._.n.8.A.T.U.~.).~.!.!.!.!.",
"!.!.!.!.!.!.!.!.~.).)._.~.^.~.!.~.~.!.Z.    . >.k.:.>X7X5X5X5X5X4X5X7X3X@     r g g ,             2._.!.T.^.!.!.!.!.!._.K.t.'.).~.!.!.!.!.!.!.!.",
"!.!.!.!.!.!.!.!._.~.!.!._.~.~.~.~.~.U.P.    X -.;.*.;X3X,X>X>X>X,X3X6X,Xo     t j j ,             n.).I.T.^.!.!.!.!.!.!.~./.~.~.!.!.!.!.!.!.!.!.",
"!.!.!.^.^.^.!.!.!.!.!.!.!.!.~.).w.x N V *.n *.;X;X;X>X2X>X1X,X3X:Xk.c.>..     O ; + p &.#.#.#.#.#.A N z L.^.).!.!.!.!.!.).~.).~.!.!.!.!.!.!.!.!.",
"!.!.^.L.f.T.^.~.!.!.!.!.!.!.).).z     1 %X>.c.3X4X3X2X1X,X,X,X3X;X*.;.*..           c eX@X@X@X0XqX*     A ^.).!.!.!.U.).~.~.~.).!.!.!.!.!.!.!.!.",
"!.!.!.I.S.R.^.).!.!.!.!.!.!.!.).V     3 l.;.>.4X5X4X4X4X3X6X8X8X5Xl.v.k.            p 0X X X XXX+X+     w.^.!.!.!.!.!.!.~.!.).~.!.!.~.~.L.L.!.!.",
"!.!.~.K.M.(.!.!.!.!.!.!.!.!.!.^.V     3 l.;.:.%X%X$X$X$X*Xx.M ,.M s l l u w w a B p @.XX X X XXXXX+.c v S w.,.S.!.T.<X<XI.I.).~.!.~.~.~.P.T.!.!.",
").~.[.J.<.K.!.!.~.!.).~.~.U.!.(.V     3 x.:.:.-.-.-.-.-.k.3             ) [ ~ }.wX0X@X|. X X X X X@X#XeXv     6 !.U.=XC.P.U.!.!.!.!.!.!.!.^.!.!.",
"~.~._.J.0.A.^.!.).!.~.).~.!.!.!.V     s %Xc.x.x.l.l.l.l.*Xd             Y ( L %.9XOXOXOXOXoX X X X X X0Xc     x !.~.K.J.T.!.~.!.!.!.!.!.!.!.!.!.",
").~.!.~.!.~.!.!.~.).).~.).~.~.!.V     1 -.m m m m m m m *.k 8 : : : - 8 I ^ P $..X$.%.%.%.$. X X X X X0Xc     x !.!.T.~.!.T.~.!.!.!.!.!.!.!.!.!.",
"~.).!.~.~.!.!.!.).~.~.).~.U.K.!.V                 X       e { ) [ / ( ( T Q !  .` I P P L E .X.X X X X0Xc     x !.!.~.~.!.~.!.!.!.!.!.!.!.!.!.!.",
"~.!.!.!.!.!.!.!.~.!.!.!.!.U.K.!.N               % % $ $ $ u X.` ! | | W Q  .| Q Q ` | T Q  .XXoX.X X X#Xc     x !.!.!.!.!.!.!.!.!.!.!.!.!.!.!.!.",
").~.!.!.!.!.!.!._._.~.!.!.~.~.U.V X           o 4 & & & % a X. . .| | | Q Q | | | | | | |  ..X X X X X0Xc     x !.!.!.!.!.!.!.!.!.!.!.!.~.!.!.!.",
"!.!.!.!.!.!.!.U.J.~.T.T.!.!.!.I.Y.n.U.,.    + U Y U U U U Y W Q W E E Q T T Q E E E Q E E Q | ! Q %.OX0Xc     x !.!._.K.K._.!.!.!.!.!.P.P.~.).~.",
"!.!.!.!.!.!.~.!.M.J.J.T.!.!.!.).~._./.Y.    * ( _ ( ( ( ( ^ T R R R R R T T T T R T T T T I P L P %.OX0Xv     x !.!.T.V.=XG.K._.!.!.!.I.I.!.~.!.",
"!.!.!.!.!.!.!.~.B.6.I.T.I.!.!.~.!.!.~.S.    * T ^ T R T R T T T R R T R T T R R R T T T T R T T P |.9XqXv     x !.!.T._.B.n.I.T.~.!.!.~.~.).!.!.",
"!.!.!.!.!.!.~.R.P.y.J.6._.~.!.!.!.~.R.S.    + Q ^ R R R R R R R R R R R W R R E R W R T R R R R R  ...O.u     x !.^.I.'.y.y.6.A.~.!.!.!.!.!.!.!.",
"!.!.!.!.!.!.~.~.F.F.J.G.T.~.!.!.!.!.~.Z.    + T ^ R R R T R R R T T R R T R T W R T W T T T R R R P L ~ w     x !.!.^.I.g.g.L.J.U.!.!.!.!.!.!.!.",
"!.!.!.!.!.!.!.!.~./._._.~.).!.!.R.!.~.2.    + R ^ R R T R T R R R T R T T T E R R T T T R R R T R R W } w     x !.!.!.^.^.^./.~.!.!.!.!.!.!.!.!.",
"!.!.!.!.!.!.!.!.!.!.!.!.!.!.!.!.)._._.q.    + W ^ T R T T T R R T R R R T R T T E T T R T R R R R R R [ w     x !.!.!.!._.~.).~.!.!.!.!.!.!.!.!.",
"!.!.!.!.!.!.!.!.!.!.!.!.!.!.!.!._._.].q.    + Q ^ T T R W R T T T T R R T W T W R R R R T R R R R T R [ w     x !.!.!.!._.).!.~.!.!.!.!.!.!.!.!.",
"!.!.~.!.~.U.!.(.(.!.!.!.!.!.!.!._.!._.i.    O ( _ ) W T E R T W R R R T T W T T R T R T R T R E R ( ) } w     f ~.!.!.!.!.!.!.!.!.!.!.!.!.!.!.!.",
"!.!.U.T.~.!.!.!.^.!.!.!.!.!.!.!.!.!.).S.2 5 < K K K T W T R T T T R R T T T T R R T R R T R T R R K K E u > 2 C !.!.~.U.^.].!.!.!.!.!.!.!.!.!.!.",
"~.).U.!.I.U.~.!.).).!.!.!.!.!.!.!.!.!.!.!.!.U.o     J ) R R T T R T T R R R R R R T T R T R W W ( -     ,.).!.).!.!.!.!.~.^.!.!.!.!.I.!.!.~.^.!.",
"!.!.!.).!.!.~.~.).!.!.!.!.!.!.!.!.!.!.!.!.!.T.      J { W W T W R R T R W ^ W R T R R R T R W W ( *     w.!.!.!.!.~.!.).!.).!.!.!.U.!.!.!.^.!.!.",
"!.!.!.!.!.!.!.!.~.!.!.!.!.!.!.!.!.!.!.~.!.!.U..     J { ( ^ T T R R T R / / / W T T R R T R / [ { :     ,.).).^.!.!.!.).!.!.!.!.T.!.!.!.!.!.!.!.",
"!.!.!.!.!.!.!.!.!.!.!.!.!.!.!.!.!.!.).!.!.!.U.H.S.R.B - * G ) R R E W T 8 - = K ) T R T ( U : = - z.P.H.T.).E.!.)._._.^.!.!.!.!.~.!.~.U.U.!.!.!.",
"!.!.!.!.!.!.!.!.!.!.!.!.!.!.!.!.~.).^.^.).!.).~.!.!.Z     9 { R R T / Y       G { T R T / K       U.!.!.!.).M.n.!._.).!._.!.!.!.!.!.!.~.!.!.!.!.",
"!.!.!.!.!.!.!.!.!.!.!.!.!.!.~.!.K.!.^.^.).).).W.).!.6     0 } [ [ _ } )       H } _ _ { { E       z.).^._._.^.n.^._._._.K.!.!.!.~.~.!.!.!.!.!.!.",
"!.!.!.!.!.).J.!.).~.!.!.!.!.).T.I.U.!.T.!.!.!.!._._.P.S.'.S w q q q q q S.'.F.b w q 9 q q a S.S.S.T.M.^.T.P.).b.K.7.J._.n.n.^.!.P.!.!.!.!.!.!.!.",
"!.!.!.!.!.).V.V.).U.!.!.!.!.!.).).).!.!.!.!.=X/.K._._.!.^.Z.            )._.).Z           6 T.!._.).n.E.J.G._.p.5.4.I.Y.M.4.K.Y.U.!.!.!.!.!.!.!.",
"~.U.T.~.~.~.n.5.I.P.T.!.!.!.!.!.~.~.).~.).~.-X!.6.!.~.!.!.w.X . . . X # U.!.!.C . X . . X 7 !.!./._.J.6.T.b.r.9.e.P.T.`.K.3.L.P.!.!.!.!.!.!.!.!.",
"~.!.!.!.!.~.n.t.'.Y.!.!.!.!.!.!.!.!.~.).~.T.!.j.I.!.!.!.!.!.!.!.!.!.!.!.!.!.!.!.~.U.K.~.!.^.!.!._._.K.h.R.^.a.r.p.T.^._.K.5.H.T.!.!.!.!.!.!.!.!.",
").~.!.!.!.!._._.!.~.!.!.!.!.!.!._._.!.!.!.P.'.t.b.7.!.~.!.!.!.!.!.!.!.!.!.!.!.!.!.!.U.!.U.U.~.!.~.~._._.)._._.^._.~._.!._._._.^.!.!.!.(./.U.!.!.",
"!.!.!.!.!.!._.~.~.!.!._._.!.).~._.~.!.~.!.^.'.a.U.J.!.!.!.!.!.!.!.!.!.!.!.!.!.!.!.~.(.^.(.^.!.!._._._.~._.).~.~._.).!.!.^.)._.).!.!.!.~.^.!.!.!.",
"!.).~._.!.!.!.!.!.~.^.K.J._.~.~.J.~.~.).!.!.^./.~._.!.!.!.!.!.!.~.!.).~.!.!.!.!.).~.(.(.(.~.).~.).!.!.!.!.!.!.!.!.!.!.~.).).~.).!.!.!.).!.!.!.!.",
"!.~.T.U._.~.!.!.!._.).K.b.!._.a.5.U.Y.^.!.!.!.!.~.~.!.!._.~.~._._.!.~.).!.!.!.!.!.!.U.!.!._._.).!.!.!.!.!.!.!.!.!.!.!._.^.~.~.~.!.!.!.!.).!.!.!.",
"!.!.U.T.~.).!.!.!.!.!.T.=Xm.K.y.J.Y.T.!.!.!.!.!.!.!.!.!._.).^.U.J.!.).~.!.!.!.!.!.!.!.!.!.!.).~.!.!.!.!.~.!.!.!.!.!._.~._.A.L.U.!.!.!.!.!.!.!.!.",
"!.!.!.!.!.!.!.!.!.!.!.!.M.1.P.L.I.Y.~.!.!.!.!.!.!.~.!.!.).J.J.b.K.!.!.!.!.!.!.!.!.!.!.)._.b.J._.!.!.!._.).!.!.~.!.!._.U.K.I.U.).!.!.!.!.!.!.^.^.",
"!.!.!.!.!.!.!.!.!.!.!._.b.8.a.u.P._.~.!.!.!.!.).~.(.).~._.!.u.G.^._.).!.!.!.!.!.~.)._.!._.~.b.!.^._.).!.!.)._.).!.!.!.U.U.^.^.!.!.!.~.!.!.!.!.!.",
"!.!.!.!.!.!.!.!.!.!.!.^.Y.f.u.P.)._.!.!.!.!.!.~.!.~.~.~.!._.b.U.~.!.~.~.U.!.!.~.!.K._._._.).-X].K.E.).J.J./.!.P.!.~.!.!._.~.!.!.!.!.).~.!.!.!.!.",
"!.!.!.!.!.!.!.!.!.!.!.!._._.^.^.~.!.!.!.!.!._.U.U.^.~.).!.!.~.!.!.!.(.^.).!.!._.!.b.U.E.K.`.].M.3.n._.b.7.T.T.T.~.!.!.!.!.!.!.!._._.^.^.!.!.!.!.",
"!.!.!.!.!.!.!.!.!.!.!.!.)._._._.!.!.!.!.!.~.!.K.I.L.~.~.!.!.~.!.!.^.^.).~._.!.!.~.M.b.I.6.J.d.e.J.'._.W.1.a.T.~.~.!.!.!.!.!._.!.J._.T.T.~.!.!.!.",
"!.!.^.).^.!.!.!.!.!.!.!.!.!.!.!.!.!.!.!.!.!.!.!.T.P.!.!.!.!.!.!.!.!.!.!.!.!.!.!.^.K.t.R.U.r.D d.D.F.T.M.8.f.S.T.^.).!.!.!.!.^.!.b.E.).P.T.^.!.!.",
"!.).!.K.E._.!.!.!.!.!.!.!.!.!.!.!.!.!.!.!.!.).~.!.^.!.!.!.!.!.!.!.!.!.!.!.!.!.!.!.I.L.U./.I.L.L.P.(.^.!.J.I.T.).!.!.!.!.!.!.)._.I.t.(.Y.P.^.!.!.",
"!.!._.L.j.(.!.!.!.!.!.!.!.!.!.!.!.!.!.!.!.!.!.!.!.!.!.!.!.!.!.!.!.!.!.!.!.!.!.!.).~./.!.!.~./.(.(.!.!._.(.^.^._.!.!.!.!.!.!.!.^.I.s.a.Y.I.^.!.!.",
"!.!._.J.e.P./.!.!.!.!.!.!.!.!.!.!.!.!.!.!.!.!.!.!.!.!.!.!.!.!.!.!.!.!.!.!.!.!.!.!.!.!.!.!.!.~.~.!.!.)._.).!.!.!.!.!.!.!.!.!.!._.^.e.s.T.~.!.!.!."
};
