/* XPM */
static char *f88d7cf6054f40f4e9ce0247d05bfc9bP20POj0VcOZLbDEF[] = {
/* columns rows colors chars-per-pixel */
"72 72 108 2 ",
"   c #577F71",
".  c #639658",
"X  c #6C9B5D",
"o  c #729E5D",
"O  c #6DA353",
"+  c #76A756",
"@  c #79A756",
"#  c #7FAC56",
"$  c #74A35A",
"%  c #7CA65D",
"&  c #7DA85C",
"*  c #5E8E64",
"=  c #5D896A",
"-  c #5D8272",
";  c #698D6B",
":  c #699464",
">  c #6C9A62",
",  c #6B936B",
"<  c #719767",
"1  c #749C64",
"2  c #7A9F65",
"3  c #74966D",
"4  c #78966F",
"5  c #75986B",
"6  c #7C9C6C",
"7  c #6D8676",
"8  c #668972",
"9  c #6A8C71",
"0  c #768C78",
"q  c #759373",
"w  c #7B9672",
"e  c #7D9A71",
"r  c #7CA263",
"t  c #80A75E",
"y  c #83AB5C",
"u  c #8AAF5E",
"i  c #87B157",
"p  c #8CB355",
"a  c #87B05A",
"s  c #8CB15C",
"d  c #95BC55",
"f  c #98BD57",
"g  c #92B55D",
"h  c #95BA59",
"j  c #9CBB5C",
"k  c #A2BF5D",
"l  c #829E6B",
"z  c #889F6E",
"x  c #809572",
"c  c #849C73",
"v  c #899D73",
"b  c #82957C",
"n  c #82A563",
"m  c #85AA61",
"M  c #8CAD63",
"N  c #84A26B",
"B  c #8BA46C",
"V  c #8EAA6A",
"C  c #92AF66",
"Z  c #91A76D",
"A  c #93AC69",
"S  c #92AA6D",
"D  c #96AE6D",
"F  c #98AD6C",
"G  c #9BAF6D",
"H  c #8FB160",
"J  c #8EB062",
"K  c #8FB062",
"L  c #91B161",
"P  c #93B166",
"I  c #96B265",
"U  c #94B067",
"Y  c #97B267",
"T  c #97B466",
"R  c #9BB663",
"E  c #98B365",
"W  c #98B167",
"Q  c #98B366",
"!  c #98B464",
"~  c #98B564",
"^  c #9BB466",
"/  c #9CB664",
"(  c #9DB766",
")  c #9FB767",
"_  c #9EB962",
"`  c #9EB865",
"'  c #97B268",
"]  c #98B268",
"[  c #9AB369",
"{  c #99B16A",
"}  c #9EB36B",
"|  c #9DB469",
" . c #86A070",
".. c #8CA371",
"X. c #90A370",
"o. c #A0BB62",
"O. c #A3BC63",
"+. c #A1B669",
"@. c #A0B66A",
"#. c #A1B86A",
"$. c #9BC450",
"%. c #A4C05E",
"&. c #ADC75E",
"*. c #ACC85B",
"=. c #B2CE55",
"-. c #B4CD5C",
";. c #BCCF5E",
":. c #A9C261",
/* pixels */
"Y Y Q A D & M } Y Y Y Y Y Y Y Y Y Y Y Y Y Y Y Y Y Y Y Y Y Y Y Y Y Y Y Y Y Y Y Y Y Y Y Y Y Y Y Y Y Y Y Y Y Y Y Y Y Y Y Y Y Y Y Y Y Y Y Y Y Y Y Y ",
"Y Y ~ A b 4 y ~ ' Y Y Y Y Y Y Y Y Y Y Y Y Y Y Y Y Y Y Y Y Y Y Y Y Y Y Y Y Y Y Y Y Y Y Y Y Y Y Y Y Y Y Y Y Y Y Y Y Y Y Y Y Y Y Y Y Y Y Y Y Y Y Y ",
"Y Y ' ~ Z c n L ] Y Y Y Y Y Y Y Y Y Y Y Y Y Y Y Y Y Y Y Y Y Y Y Y Y Y Y } ] Y Y Y Y Y Y Y Y Y ' Y Y Y Y Y Y Y Y Y Y A Y Y Y Y Y Y Y Y Y Y Y Y Y ",
"Y Y Y Y Q ~ ] ] ' Y Y Y Y Y Y Y Y Y Y Y Y Y Y Y Y ] Q Y Y Y Y Y Y Y Y ] M M Q Y Y Y Y Y Y Y Y Q Y Y Y Y Q Y Y Y ' Y _ R A Y Y Y Y Y Y Y Y Y Y Y ",
"Y Y Y Y Y Y Q ' Y Y Y ] Y Y Y Y Y Y Y Y Y Y Q Q Q A P Y Y Y Y Y Y Y Q } t t F A Q ' Y Y Y Y Y P Y Y Y Q C ' Y Y ' Q _ ~ Y Y Y Y Y Y Y Y Y Y Y Y ",
"Y Y Y Y Y Y Y Y Y Y ] ] Y Y Y Y Y Y Y Y Y ] Q A Q Y A P C Q Y Y Y ' Q ] t u M M ] Q Y Y Y Y Y V A Q Y C V ' Y Y Y Q A ' Y Q Q Y Y Y Y Y Y Y Y Y ",
"Y Y Y Y Y Y Y Y Y ] g u ] Y Y Y Y Y Y Y Y Y Y Q Y A V C ' Y Y Y Y Y ] } y n 5 N ] Q Y Y Y C A Y Q Q Q A C Y Y Y Y Y Y Y Q Q ] ] Y Y Y Y Y Y Y Y ",
"Y Y Y Y Y Y Y Y ] ] m t ( A A Y Y Y Y Y Y Y Y Y Y C Y Y Q ' Y Y Y Y Q ' C C A A Q Y Y P A C A Q Q Q Y C Y Y Y Y Y Y ] ] ] t M ] Y Q Y Y Y Y Y Y ",
"Y Y Y Y Y Y Y Y ] ` 6 6 m n ] ] Y Y Y Y Y Y Y Y ' Q Q ~ ] ' Y Y ] Y Y Y ] Q Q Q Q A Q Q C ] Q Y Y Y Y Y F Q Y Y Y Y Y Y ] t y u ' A Q Q ' Y Y Y ",
"Y Y Y Y Y Y Y Y Y ( B 6 6 6 ] Q Y Y Y Y Y Y Y Y ' Q ] C C Q Y Q Y Y A Y Y Y Q ] ] Q Y ] Y Y ] Y Y Y Y Y Y Y Y Y Y Y Y Y ] ] r M L A ] ] Y Y Y Y ",
"Y Y Y Y Y Y Y Y Y ' Y Q ] ] ] Q Y Y Y Y Y Y Y Y Y Y ] M % A @.M $ V A Y Y Y Y Y ' Q Y Q ' ' Q ' ] ] Y Y Y Y ' Y Y ] Q Y Q ( 3 5 < V Q Y Y Y Y Y ",
"Y Y Y Y Y Y Y Y Y Q Q ] Q Q Y ] Y Y Y Y Y Y Y Y Y Y Y ' g u P # t B Q Y Y Y Y Y Y Q Q A M A ' Q Y M Y Q Y Y Q ] C Q ' Y ] Q N N l V Q Y Y Y Y Y ",
"Y Y Y Y Y Y Y Y Y Y C Q ' Y Y Y Y Y Y Y Y Y Y Y Y Y Y V ;.$.1 6 V S Q C Q Q Y Y Y Y ] A ] ' Y Q Y y Y Y Q ] A Q ( Q C Y Q Y ~ ( ( Q Y Y Y Y Y Y ",
"Y Y Y Y Y Y Y Y Q C V ] Y Y Y Y Y Y Y Y Y Y Y Q Y Y Q ] A < 6 7 B ( W Q ] Q Y Y ' ] s s Q ] Y Y u s ] Q ] Q Q Q Y Q Q Y F Q Y Y Y Y Y Y Y Y Y Y ",
"Y Y Y ~ Y C Y Y Y V M Q Y Y Y Y Y Y Y Y Y Y Y Q Y Y ] ~ V ; 4 A Y Q Q Q Q Y Y Y Y ] C u s Y Q y @ ] M m ] C Q Q C Q Y Y Y Y Y Y Y Y Y Y Y Y Y Y ",
"Y Y Y Y Y C Y Y Y V V Q Y Y Y Y Y Y Y Y Y ] Y u Y ] Y ' ( C A ( Q C Q Q Q ' Y Y Y Y A O.f C } y , Q s ] M M ] Q Q Q Y Y Y Y Y Y Y Y Y Y Y Y Y Y ",
"Y Y C V C Q ] Q Q N l Q ] Q Y Y Y Y Q Q Q Q Q y L Q Q Q Y Q Q Q Y Y Q A A Y Y Y Y Y Y } s M ( j 6 M s } @ t } Y Y Y Y Y Y Y Y Y Y Y Y Y Y Y Y Y ",
"Y Y Y C C Q Q ] Q l w Q Q C Y Y Y Y C Q A S Q + > A Q F Y Y Y Y Y ' ~ B c C Y Y Y Y T Q q N r , C : w s X V ( Y Y Y Y Y Y Y Y Y Y Y C Y Y Y Y Y ",
"Y Y Y Y Y Y ] Y Q A B ] } } Y Y Y Y Y Q A B C m 5 A Q Y Y Y Y Y Y Q ' P N B R Y Y Y Q S w M l 4 A w N s l S Q Y Y Y Y Y Y Y Y Y Y Y Y ( Q C Q Y ",
"Y Y Y Y Y Y Y Y Q Q Q ] u n ' Q Y Y Y Y Q Q ' } Q Q Y Y Y Y Y Y Y ' Q Y ~ ~ Y Y Y Y Y Y ~ ' Q ( T ~ Q Q Q Q Y Y Y Y Y Y Y Y Y Y Y Y Y O.Q Y Q Q ",
"Y Y Y Y Y Y Y Y ] ] ] ] m j O.A ] Q ] ] Y ' Y Y Q ' Y Y Y Y Y Y Y Y Y Y Y Y Y Y Y Y Y Y Q A Q ] Y Y Y Y Q ' ' Y Y Y Q Y C Y Y Y Y Y Y C A Y Y Y ",
"Y Y Y Y Y Y Y Y ] ] ~ ' ] h R ' ] ] M M ] Q Y Y Y Y Y Y Y Y Y Y Y Y Y Y Y Y Y Y Y Y Y Y Y Y Q Q Y Y Y Y Y Y Q ] Y Q A O.O.A Q Y Y ] Y Y Q Y Y Y ",
"Y Y Y Y Y Y ] P t ~ ] ] @.% m m t } y t } ] Y Y Y Y Y Y Y Y Y Y Y Q Y Y Y Y Y Y Y Y Y Y Y Y Y Y Y Y Y Y Q Q Q Q Y Y C R &.O.n s ] Q Y Y Q Q Y Y ",
"Y Y Y Y Y Y ] Q M y M m ] 6 o + M } M + M ] Y Y Y Y Y Y Y Y Y ' A A Q Y Y Y Y Y Y Y Y Y Y Y Y Y Y Y Y Q A C Q ] Y Y Q C @.u 2 A Z C Q Y Y ] Y Y ",
"Y Y Y Y Y Y Y } M % Y s < - : H Q ] L O & } Y Y Y Y ] ] Y Y Y C V  .Y Y Y Y ] Q Y Y Y Y Y Y Y Q ] ] ] ~ ..B Q Y Y Y Y Q Q < N S B ] Q Y Y Y Y Y ",
"Y Y Y Y Y Y Y Q V 6 Y ( N ; 4 A Y Y L & M Q Q Y Y ] Y C ' Y Y Y Y Y Y Y Y Y Y Y ] ] Y Y Y Y Y Y Y ] ] ~ ' Y Y Y Y Y Y } y * v F C Q ] Y Y Y Y Y ",
"Y Y Y Y Y Y Y Y Q ] Y Q Q Q Q Y Y Y Q ] F Y Y Y Y | m % } Y Y Y Y Y Y Y Y Y y Y ] ' Y Y Y Y ] C @ C ~ A A Y Y Y Y Y Y ] M 1 z Q Q Y Y Y Y Y Y Y ",
"Y Y Y Y Y Y Y Y ' Q Y Y ] Q Q Y Y ] Q ] Q Y Y Y Y Y u H ] Y Y Y Y Y Y Y Y Y k p C ] Y Y Y Y ] Q h p A A A ~ Y Y Y Y Y Y Q ( Q Y Y Y Y Y Y Y Y Y ",
"Y Y Y Q R Q Y Y Y Y Y Y Y Y Y Y Y Y Y Y Y Y Y Y ] s o ..~ ' Y Y Y Y Y Y Y Y h 1 A ~ Q ' ' ] C ~ =.h B N A ~ Q Y Y Y Y Y Q Q ' Y ] Y Y Y Y Y Y Y ",
"' Q Q N x A Q Y Y Y Y Y Y Y Y ' Y ] Y Y Y Y Y Y ] Y n B ~ Y Y Y Y Y Y Y Y Y m N A Q ] Q ' Q ] ( H M O.z C Q Q ' Y Y Y ' Q Y Y Y Q Q Y Y Q Q Y Y ",
"Y Q Y V z A R Y Y Y Y Y Y Y Y ' Y Y ' ' ] Y Y Y Y ] | ~ ' Y Y Y Y Y Y Y Y Y Y ( Q C Y Y Y Y Y Q B : s ] Y Y Y Y Y Y Y Y Q Y Y Y A Q Q ~ N B Y C ",
"Y Y ] M s ( C Y Y Y Y Y Y Y Y Q P t Y Y P Q Y Y Y Y T Y ' Y Y Y Y Y Y Y Y Y Y Y Y Y Y Y Y Y ' Q ' V V Q Y Y Y Y Y V :.:.B C A Q Q ] Q C V Z Y Y ",
"Q Q } n . M Q C Q Y Y Y Y Y Q / Q L g M u S A ~ Y Y Y Y Y Y Y Y Y C A Q ' ] Y Y Y Y Y Y Y Y Y Y Q ~ ] ] C ] Q Q ] A %.%.B C Y Y Y Y Y Y Y Q Q Y ",
"Y Q Q M ; l ( Y A Y Y Y Y Q Q Q F k p o F B A Q Y Y Y Y Y Y Y Y Q Q Q ] C C Y Y Y Y Y Y Y Y Y Y C Q ] Q Q Q Q ] Q ] M m Y C Q Y Y Y Y Y Q Y Y Y ",
"Y Y Y Q Q W Y Y Q Q Y Y Y Q Q C C Y t N Z A Y Y Y Y Y Y Y Y Q ' Q ] Q ] Y Y Y Y Y Y ] Q Y Y Y Y ] Q ] Q Y N V Q ] Q ] ] Y C Q Y Y Y Y Y Y Y Y Y ",
"Y Y Y W Q Q Y Y ' Q Y Y ' C M Y C Y ] Q Q Q Y Y Y Y Y Y Y Y ] ] P M ] ] Y Y Y Y ] Q Y ] Y Y Y Y Q Q A Q Y z V Q Q A Q ] Y Q Y Y Y Y Y Y Y Y Y Y ",
"Y Y Y Y Y Y Y Y Q ' Y Y Y C V Y Y Y Y Y Y Y Y Y Y Y Y Y Y Y Y ] H & L M ] Y Q Y V Y Y ] Y Y Y Y ] Q Q ] Y ~ Q Q Y Y Y Y Y Y Y Y Y Y Y Y Y Y Y Y ",
"Y Y Y Y Y Y Y Y ] ] Q Y Y Q Y C Y Q Y Y Y Y Y Y Y Y Y Y Y Y Q ] M y 6 1 | Y Q Y Y V N ~ Y Y Y Y Y ' Q Q Y ] Y Y Y Y Y Y ' Y Q Y ' Q Y Q Q Y Y Y ",
"Y Y Y Y Y Y Y C t Q A A ~ Q Y V C Q Y Y Q ] Y Y Y Y Y Y Y Y Q ' V M V V Y Y ] Y Y A V Q Y Y Y Y Y ' Y A Y Y Y Y Y Y ] M M ] Y Y Q F Q N N ~ ' Y ",
"Y Y Y Y Y Y Q Y u M m A Y Q Y A Q Y Q R C Y Y Y Y Y Y Y Y Y ' Y ' ' Q ~ Y Y Y Y C Q Q Y Y ] Q Y Y Q ] Q Y Y Y Y Y Y Y j k t V ] ] Q ] V A ] Q Y ",
"Y Y Y Y Y Y Y Q ~ @ V C A ] Y Q Q Q Q Q Y Y Y Y Y Y Y Y Y Y Y Y ] Y Q ' Y Y Y Y Y Y Y Y Q P Y Y Y Y Y Q Q ' Y Y Y Y A @.s y A A Q Q A Q Q ] Y Y ",
"Y Y Y Y Y Y Q ] B 2 m r A Q Y Y Y ' Y Q ] Y Y Y Y Y Y Y Y Y Y Y Y Y Y Y Y Y Y Y Y Y Y Y ' u u } Y n % F C Q Y Y Y R B ..2 2 & l ] Q Q Q Y ] Y Y ",
"Y Y Y Y Y Y Q F v e n m A Q ] ' Y Y ] C C ] Y Y Y Y Y Y Y Y Y Y Y ' Y Y Y Y Y Y Y Y Y Y ' Y y M R o N A B Q Y Y Y Y Q A w w n V A Q Y Y Y Y Y Y ",
"Y Y Y Y Y Y Q Q Q ~ ] ] Q Q Q ] Y Y ] u i } ] Y Y Y Y Y Y Y Y Y Y Y ] ] Y Y Y ] Y Y Y Y Q ] i $ 6 y } V A Q Y Y Y Y Y Y ( Q Q Y Y Y Y Y Y Y Y Y ",
"Y Y Y Y Y Y Y Y Y Q ' Y Y Y Y Y Y Y | r 2 Y C Y Y Y Y Y Y Y Y Y Q ' M H ' ] ] M ~ ~ ' ' Q ] 2 $ N 5 A A Q Y Y Y Y Y ] Q Q Q Q Q Y Y Y Y Y Y Y Y ",
"Y Y Y Y Y Y Q C Y Y Y Y Y Y Y Y Y Y O.4 6 2 n ( Y Y Y Y ] ] Y Y A #.d y } ] ] $ 6 ' Q Q ] Q l < M B A Y Y Y Q Y Y Y Y ] Q A Y Q Y Y Y Y Y Y Y Y ",
"Y Y Y Y Q Y ] ( _ Q C Y Y Y Y Y Y Y Y A V A A Y Y Y Y ] M u } Y C %.*.C ' Y ~ $ X ' ' ~ ( Y Q V P ` T Y Q ' C C Q A ] Q Y Y Y Y Y Y Y Y Y Y Q ' ",
"Y Y C A Y Y Q Y Y Y ' Y Y Y Y Y Y Y Y I R Q ! C Y Y Y Q Y y M ] R % 6 #.m M ] % < B Q Q Q Y Q ( Y Y Y Y ] C M ] Q Q Q C ~ O.Q C Y Y Y Y Y Q ] Q ",
"Q Y C C A C Q A Q Q Y Y Y Y Y Y Y Y Y Y Y Y Y Y Y Y Y Y } u # Q / o 3 s y @.y M F z V Q A Y Y Y Y Y Y Y Y Y Y Y Y Y Y Y Y Y Y Y Q C A Q ' R Q C ",
"Y Y Y Y Y Q Y Y Y ' Y Y Y Y Y Y Y Y Y Y Y Y Y Y Y Y Y Y ] ] y g C o y % n ] $ C ] B B Q Q Y Y Y Y Y Y Y Y Y Y Y Y Y Y Y Y ' Y Y ' C A T ] Q Y Y ",
"Y Y Y Y Q A Y Y Y Y Y Y Y Y Y Y Y Y ] Q Y Y Y Y Y Y Y Y Q ] & m X 9 m ; 0 % : B S Q Q Y Q ' Y Y Y Y Y Y Y Y Y Y Y Y Y Y ' ' ~ C C Y Q C Y ' Y Y ",
"Y Y Y Y Y Y Y Y Y Y Y Y Y Y Y Y ' Q ' C Y Y Y Y Y Y Y Y Q C M V m N M 6 l M V S Q Q Y Y Y Y Y Y Y Y Y Y Y ~ M Y Y ' Y Y Y Q Q Q Q F Q C C Q Y Y ",
"Y Y Y Y Y Y Q Y Y Y Y Y Y Y Y Y Q ' Q ( ' Y Y Y Y Y Y Y Y Y Q ~ } ( Q ( R ] ] Q Q A Q Q Y Y Y Y Y Y ] Y Y ] s u ' Y Q Y ] Q Y Y Y Y Y Q Q Y Y Y ",
"Y Y Y Y Y Y Q Y Y Y Y Y Y Y Q Y M Y ~ ~ A Y Y Y Y Y Y Y Y Y Y Y Q Y A Q Y Y Q ] ] Q ] Q Y Y Y Y Y Y ] ] Q ] Y s P } ] ] M C Q Y Q Q Y Y ' Y Y Y ",
"Y Y Y Y Y ' m C ] Q Y Y Y Y ' A V C ' C Y Y Y Y ] Y Y Y Y Y Y Y Y Y Q Q Y Y Q C Q Y Y Y Y Y Y Y Y C s ~ A B ] y C % m @.y u } Y Z Q Q Y Y Y Y Y ",
"Y Y Y Y Y ' j j ' Y C Y Y Y Y ' Y A Y Y Y Y &.O.V Y Y Y Y Y Y Y Y ' Q Q ' Q ' Q ( Q Y Y Y Y Y Y Y ' y g m n D 5 $ @ V S s + M Z S Q C Y Y Y Y Y ",
"Q C A Q Q ] p $ V N Z Q Y Y Y Q Q F Y Y Y Q -.C % Y ] Q Y Y Y Y Y Y Y Y Y Y Y Y Q Y C Q Q ] Y Y Q } m t S m , 8 X B S } u O 2 Z Y Y Y Y C Q Y Y ",
"] Y Y Y Q F u < ..Z Q ] Y Y Y Y Y W Y Y Q A Y r V Y Q A Y Y Y Y Y Y Y Y Y Y Y Y Q C M Q Y ' Y Y Q Q M r F Q 5 ; 4 V ' } M + B S Y Y Y Y Q Q Y Y ",
"Q ' Y Y Q ' ] ] Q Q ] ] Q ] Y Y Q Q Y Y Y B v 1 u @ Y Q Y Y Y Y Y Y Y Y Y Y Y Y Y Y Y Y C Q Y Y Q ' Q ] Q Q ] Q Q Q Q Q Q F Q Q Y Y Y / / C Y ' ",
"Y Y Y Y Y Y ] Q Q C Q ] ] C ' Q Q Q Y Q Y R ..e M M Y Q Y Y Y Y Y Y Y Y Y Y Y Y Y Y R / / Q ' Y Y Y Q F Q Q Q Q Q C Q Q Q Q Q Q Y Y Y Y R Y Y Q ",
"Y ' Q F ' Y Y Y Y ] ] M V } Q Q u C Q Q Y Y Q ( ] ] ] ' Y Y Y Y Q Y Y Y Y Y Y Y ' Y ( R _ Q ' Y Y Y Y Y Y Y Y Y Y Y Q ] Q Y Y Y Y Y Y ' Y Y Y Y ",
"Y Q Y C Q Y Y Y Y ] ] M % g } 6 o A S Q Y Y Y Y ] ' ' ' Y Q Q ] ] Y Y Y Y Y Y Y Y Y Y C C ] Y ' Y Y Y Y Y Y Y Y Y Y ] Q ' Q Q Y Y Y Y Y Y Y Y Y ",
"' Q C M Q ' Y Y Y Y Y ' %.p M 1 M V A Y Y Y Y Y Q C Y Y F Y Q C n Y ] ' Y Y Y Y Y Y Y Y ] Y ' ] Y Y Y Y Q ' Q C Y Y Q Q ~ l B C Y Y Y Y Y Y Y Y ",
"Y Y ' ' Y Y Y Y Y Y Q Q g > N n V Z Q Y Y Y ] Q ] Q Y Y ] y M m u Y Q Y Y Y Y Y Y Y Y Y ] m m ] Q Y Y ] ] Y ] Q Y Y Q C M B A C Y Y Y Y Y Y Y ] ",
"Y Y Y Q ' Y Y Y Y Y Y | y = 6 w N ] Q Q Y Y Y Y Q ( Q ] Q Y < n ( Q ] A Q Q Y Y Y ] ] Q Q C t L } ] ' ' P ] ~ ] ] Q ] C C Q Q Q ' Y ] Y Y Y Y Y ",
"Y Y Y Y Y Y Y Y Y Y Y T S w 4 N ] Q Q ] Y Y Y Q Q Y Q F Y Q m C ] C Q Q ' Q ] Q P M ] ] ] ' -.:.V M | t m | A B C Q Y Y Q Q Y Y Y Y Q Q Y Y Y Y ",
"Y Y Y Y Y Y Y Y Y Y Y Y Y ~ ] Q Q Y ' Y Y Y Y C C ~ Q Q Y Y Q ] Y Y / ( A Q ] ] P t C L M @.O.s O y @.m @ Q A P Q Y Y Y ] Q A Q ] ' Q Q ] Q Y Y ",
"Y Y Y Y Y Y Y Y Y Y Y Y Y Y ] Q C Y Y Y Y Q Y V M N ] Q Y ' Q ' Q Q / A Q Q Y Y } s y V % m 9 : u ..F H X 6 S ] Q Y Y Y Q ] Q Y M Q S C Q C Y Y ",
"Y Y Y R ] Y Y Y Y Y Y Y Y Y Y Y Q ] Y Y Y Y Q Q A N Y Q Y Y Y Y Y C ] Y Y Y Y Y ~ M < F C :   8 c v F u * q X.S ~ ' ' Y Y Y Q Y % u A V A Q Q Q ",
"Y Y Y M M } Y Y Y Y Y Y Y Y Y Y ] Q Y Y Y Y A Q Q Q Y Y Y Y Y Y Y Y Q ] Y Y Y Y Q V z C ( V N N v / ( g n V S Q Y Y Y Y Y Y Y } A 2 ( Z V Q Y Y ",
"Y Y | 6 2 ( Y Y Y Y Y Y Y Y Y Y Q Y Y Y Y Y Y Y ] Q Y Y Y Y Y Y Y Y Y Y Y Y ] Y ' Q ( Y ' Q @._ R Y C Q @.Q Q Q Y Y Y Y Y Y Y ~ V ; 6 Z Z Y Y Y ",
"Y Y } m : B R Y Y Y Y Y Y Y Y Y ' Y Y Y Y Y Y Y Q ] Y Y Y Y Y Y Y Y Y Y Y Y Q ] Y Y Y Y Y Y Q Y Y Y Y Y Q Q Q Q Y Y Y Y Y Y Q ] Q > 9 A Q Y Y Y "
};
