/* XPM */
static char *_8de8717c0d1447bc71acd35d7d38ed5cFGUJi5YVj13huAQ[] = {
/* columns rows colors chars-per-pixel */
"72 72 223 2 ",
"   c #020000",
".  c #0B0000",
"X  c #130000",
"o  c #1C0100",
"O  c #1A0A0A",
"+  c #240200",
"@  c #2B0600",
"#  c #250903",
"$  c #2C0C03",
"%  c #2A0C0A",
"&  c #330603",
"*  c #310E02",
"=  c #2E160A",
"-  c #321105",
";  c #391603",
":  c #35150A",
">  c #361A0B",
",  c #3A1B0C",
"<  c #270F16",
"1  c #381B12",
"2  c #311C1F",
"3  c #3C220E",
"4  c #3D2511",
"5  c #3E2A13",
"6  c #392118",
"7  c #3D2B1B",
"8  c #352228",
"9  c #2B223C",
"0  c #352939",
"q  c #352A3A",
"w  c #3E313E",
"e  c #431E0F",
"r  c #43220D",
"t  c #4C270E",
"y  c #422414",
"u  c #422C15",
"i  c #4A2C16",
"p  c #432419",
"a  c #422D1A",
"s  c #532D15",
"d  c #45331A",
"f  c #49351B",
"g  c #583718",
"h  c #442A24",
"j  c #4D3026",
"k  c #4D332B",
"l  c #54372B",
"z  c #483736",
"x  c #573D36",
"c  c #5E431D",
"v  c #66431D",
"b  c #724A1E",
"n  c #564627",
"m  c #574928",
"M  c #5B433B",
"N  c #674926",
"B  c #67542C",
"V  c #77582A",
"C  c #6B5031",
"Z  c #775C3A",
"A  c #66683A",
"S  c #7D6434",
"D  c #3B3855",
"F  c #373961",
"G  c #453E41",
"H  c #3D4265",
"J  c #3C4571",
"K  c #364278",
"L  c #515151",
"P  c #674F46",
"I  c #6E564E",
"U  c #6B5A59",
"Y  c #715B56",
"T  c #5F635B",
"R  c #6E7240",
"E  c #657A4A",
"W  c #737E4A",
"Q  c #61645A",
"!  c #79635A",
"~  c #6A745D",
"^  c #495172",
"/  c #57616C",
"(  c #6F6F6F",
")  c #7F6A64",
"_  c #766868",
"`  c #825C28",
"'  c #846636",
"]  c #89773E",
"[  c #8A764B",
"{  c #876B52",
"}  c #816D66",
"|  c #836F68",
" . c #86736B",
".. c #967C64",
"X. c #8A7670",
"o. c #8D7B74",
"O. c #758348",
"+. c #7A834B",
"@. c #7E8A4F",
"#. c #7F8B52",
"$. c #68995B",
"%. c #6BA351",
"&. c #7AA55A",
"*. c #5E8C67",
"=. c #6F8B6F",
"-. c #769A68",
";. c #7C9C6C",
":. c #6B8775",
">. c #7B9672",
",. c #7CA263",
"<. c #7FA268",
"1. c #858D4C",
"2. c #9A8746",
"3. c #98944C",
"4. c #818D51",
"5. c #869454",
"6. c #959754",
"7. c #A4934E",
"8. c #A19A54",
"9. c #8DA35E",
"0. c #84AB5D",
"q. c #89AB5C",
"w. c #9BA65C",
"e. c #9DA45C",
"r. c #8CB356",
"t. c #8CB15C",
"y. c #98B85C",
"u. c #A4A45C",
"i. c #A2BF5D",
"p. c #9F846B",
"a. c #879B66",
"s. c #839D6B",
"d. c #95837A",
"f. c #839A75",
"g. c #82A563",
"h. c #8FA660",
"j. c #85A961",
"k. c #8BAC63",
"l. c #85A36A",
"z. c #8BA36C",
"x. c #8FA96A",
"c. c #91A761",
"v. c #93AD64",
"b. c #9AAD63",
"n. c #97AB6A",
"m. c #93AC6A",
"M. c #8FB062",
"N. c #97B267",
"B. c #98B366",
"V. c #9EB963",
"C. c #96B168",
"Z. c #99B368",
"A. c #8DA172",
"S. c #A1B966",
"D. c #3F5087",
"F. c #3E518B",
"G. c #3C538C",
"H. c #3E5CA5",
"J. c #43558D",
"K. c #425B99",
"L. c #556588",
"P. c #415EA5",
"I. c #4366A7",
"U. c #4267B6",
"Y. c #446DC3",
"T. c #4672CB",
"R. c #4678D8",
"E. c #477CE4",
"W. c #477FEA",
"Q. c #7B9491",
"!. c #4882EC",
"~. c #4682F2",
"^. c #4985F5",
"/. c #4987F9",
"(. c #4A8BFE",
"). c #4B93FF",
"_. c #4D9CFF",
"`. c #52ACFF",
"'. c #9A8A83",
"]. c #9C8E8B",
"[. c #A18E81",
"{. c #A3948C",
"}. c #A39691",
"|. c #A79B97",
" X c #82A199",
".X c #ADA09B",
"XX c #8AB1AC",
"oX c #B3A7A4",
"OX c #B5AAA6",
"+X c #B9AEAA",
"@X c #BDB2AE",
"#X c #BEB4B2",
"$X c #BFB9B7",
"%X c #C2B8B5",
"&X c #C3BAB6",
"*X c #C5BDBA",
"=X c #CAC1BE",
"-X c #95C5C4",
";X c #9ED9D7",
":X c #A3D5C6",
">X c #A3DAD7",
",X c #A6EBEC",
"<X c #B2FEFF",
"1X c #BCFFFF",
"2X c #C6C1C1",
"3X c #CDC4C2",
"4X c #D2CBC7",
"5X c #D4CDCB",
"6X c #D7D1CF",
"7X c #DAD4D2",
"8X c #DAD6D5",
"9X c #E2DEDC",
"0X c #E7E2DE",
"qX c #C6FDFA",
"wX c #C3FFFF",
"eX c #E6E2E0",
"rX c #E9E6E4",
"tX c #EFEDEC",
"yX c #F1EFEB",
"uX c #F2F0EF",
"iX c #F5F4F3",
"pX c #F8F7F7",
"aX c #FFFFFF",
/* pixels */
"N.N.B.m.n.,.M.B.N.N.N.N.N.N.N.N.B.N.N.N.N.N.Z.N.N.N.N.N.B.B.B.N.N.N.N.N.N.N.N.N.B.N.N.N.N.N.N.N.N.N.N.N.N.N.N.N.N.N.N.N.N.N.N.B.B.N.N.N.N.N.N.N.",
"N.N.B.m.f.-.j.N.B.N.N.N.N.N.N.N.N.N.N.N.N.N.B.B.N.N.N.N.m.B.N.N.N.N.N.N.N.N.N.N.N.N.N.N.N.N.N.N.N.N.N.N.N.N.N.N.N.N.N.N.N.N.N.N.N.N.N.N.N.N.N.N.",
"N.N.N.B.x.f.,.N.Z.N.N.Z.N.N.N.N.N.N.N.B.N.Z.Z.B.N.N.N.N.Z.B.N.N.N.N.N.N.Z.B.N.N.Z.Z.N.N.N.N.N.N.N.n.N.N.N.N.N.N.Z.N.m.N.N.N.N.N.N.N.N.N.N.Z.N.N.",
"N.N.N.N.N.V.B.B.N.N.N.N.N.N.N.N.N.5.O.+.O.+.W +.b.N.6.W O.W 1.B.N.Z.N.6.E 5.B.n.+.O.O.O.w.N.N.N.b.4.O.+.+.+.O.6.N.N.V.B.N.N.N.N.N.N.N.N.N.N.N.N.",
"N.N.N.N.N.N.B.N.N.N.N.N.N.N.N.N.Z.B - - $ $ + * e.N.V o @ # v N.B.B.B.' o S B.w.r $ = # 2.B.N.m.w.3 + + @ $ X ` N.B.V.B.N.N.N.N.N.N.N.N.N.N.N.N.",
"N.N.N.N.N.N.N.N.N.N.N.N.N.N.N.N.Z.` O 1 j j h l 7.e.S h p # c w.w.e.e.' O V 9.3.r $ - $ [ b.e.w.8.l h j j j h ' w.9.m.N.N.N.Z.N.N.N.N.N.N.N.N.N.",
"N.B.N.N.N.N.N.N.N.B.M.t.Z.N.N.N.B.V . } tXtXtXeXl - |.iX|.@ - r t r y , - > t y $ $ - - r s y - l 0XtXtXtXtXtXOX, f c.N.N.N.N.Z.N.N.N.N.N.N.N.N.",
"N.N.N.N.B.N.N.N.N.Z.k.,.V.m.m.B.Z.V X o.aXaXaXpXl X +XaXoX+ - $ $ $ $ $ - - $ @ - - - - $ $ $ o j pXaXaXaXaXaX$X@ u h.N.Z.0.k.N.N.N.Z.N.N.N.N.N.",
"N.N.N.N.N.N.N.N.N.V.<.>.j.<.n.V v {.=X9XaXaXaXaX5X2Xo.x k + k =X3X3X3XY + - # j 3X3Xl + - + P 3X5XpXaXaXaXaXaX#X$ u h.N.Z.&.q.j.N.N.N.N.N.N.N.N.",
"N.N.N.N.N.N.N.N.Z.V.l.;.<.;.k.= o %XaXaXaXaXaXaXaXaXY   o X l aXaXaXaX| X $ + x aXaXx X + X ! aXaXaXaXaXaXaXaX#X# i b.N.N.Z.,.k.N.m.N.N.N.N.N.Z.",
"N.N.N.N.N.N.N.N.N.N.N.N.Z.B.c.d $ +XaXaXaXaXaXaXaXaX*X].}.].{.X.o.rXaX*X].! o l pXaXOX].}.].%XaXaXaXaXaXaXaXaX#X# s w.B.Z.B.-.;.-.k.B.N.N.N.N.N.",
"N.N.N.N.N.N.N.N.N.N.B.Z.Z.B.9.d @ %XaXaXaXaXaXaXaXaXaXaXaXaX8XX X 4XaXaXaX+X. p iXaXaXaXaXaXaXaXaXaXaXaXaXaXaX+X. e V.B.N.N.l.l.;.x.B.N.N.N.N.N.",
"N.N.N.N.N.N.N.N.Z.N.C.N.N.N.c.d $ o.OX7XaXaXaXaXaXaXaXaXaXaXeX! ! 0XaXaXaX3XU o.pXaXaXaXaXaXaXaXaXaXaXaXaXaXaX5XY ! 2.3.b.N.B.B.V.N.N.N.N.N.N.N.",
"N.N.N.N.N.N.N.N.Z.k.k.Z.N.N.c.u : + . ) aXaXaXaXaXaXaXaXaXaXaXaXaXaXaXaXaXaXaXaXaXaXaXaXaXaXaXaXaXaXaXaXaXaXaXaXaXrXp # @.N.B.N.N.N.N.N.N.N.N.N.",
"N.N.N.B.N.m.N.Z.N.x.v.N.N.N.c.u * p h '.aXaXaXaXaXaXaXaXaXaXaXaXaXaXaXaXaXaXaXaXaXaXaXaXaXaXaXaXaXaXaXaXaXaXaXaXaXeX6 - #.N.N.N.N.N.N.N.N.N.N.N.",
"N.N.N.N.N.C.N.N.N.k.k.B.N.B.c.d @ oXtXpXaXaXaXaXaXaXaXaXaXaXaXaXaXaXaXaXaXaXaXaXaXaXaXaXaXaXaXaXaXaXaXaXaXaXaXaXaXeXp - @.N.N.N.N.N.N.N.N.N.N.N.",
"N.N.N.x.C.B.N.N.B.g.;.B.B.B.b.g + %XaXaXaXaXaXaXaXaXaXaXaXaXaXaXaXaXaXaXaXaXaXaXaXaXaXaXaXaXaXaXaXaXaXaXaXaXaXaXaXeXp $ #.N.N.N.N.N.N.N.N.N.N.N.",
"N.N.N.m.M.N.N.Z.B.l.>.B.B.N.b.g + +XaXaXaXaXaXaXaXaXaXaXaXaXaXaXaXaXaXaXaXaXaXaXaXaXaXaXaXaXaXaXaXaXaXaXaXaXaXaXaXeXp $ #.N.N.N.N.N.N.N.N.N.N.N.",
"N.N.N.B.N.N.N.N.N.m.A.B.Z.B.B.t X OXaXaXaXaXaXaXaXaXaXaXaXaXaXaXaXaXaXaXaXaXaXaXaXaXaXaXaXaXaXaXaXaXaXaXaXaXaXaXaXeXp $ @.N.N.N.N.N.B.B.N.N.N.N.",
"N.N.N.N.N.N.N.N.N.B.B.B.5.' ' [.}.9XaXaXaXaXaXaXaXaXaXaXaXaXaXaXaXaXaXaXaXaXaXaXaXaXaXaXaXaXaXaXaXaXaXaXaXaXaXaXaXeXp $ @.N.B.N.N.N.B.V.B.N.N.N.",
"N.N.N.N.N.N.N.N.N.N.N.B.O.o 2 tXaXaXaXaXaXaXaXaXaXaXaXaXaXaXaXaXaXaXaXaXaXaXaXaXaXaXaXaXaXaXaXaXaXaXaXaXaXaXaXaXaXeXp @ @.N.N.N.N.Z.N.N.N.N.N.Z.",
"N.N.N.N.N.N.N.N.N.N.B.N.#.- p 9XaXaXaXaXaXaXaXaXaXaXaXaXaXaXaXaXaXaXaXaXaXaXaXaXaXaXaXaXaXaXaXaXaXaXaXaXaXaXaXaXaXeXp $ 1.m.B.N.N.B.N.N.N.N.N.N.",
"N.N.N.N.N.N.Z.C.0.N.N.N.5.- p 9XaXaXaXaXaXaXaXaXaXaXaXaXaXaXaXaXaXaXaXaXaXaXaXaXaXaXaXaXaXaXaXaXaXaXaXaXaXaXaXaXaXeXp @ 3.S.0.M.B.B.N.N.N.N.N.N.",
"N.N.N.N.N.N.N.N.k.j.k.j.4.% 1 9XaXaXaXaXaXaXaXaXaXaXaXaXaXaXaXaXaXaXaXaXaXaXaXaXaXaXaXaXaXaXaXaXaXaXaXaXaXaXaXaXaXeXu $ @.k.,.m.z.N.N.N.N.N.N.N.",
"N.N.N.N.N.N.N.V.k.&.N.t.E % p 9XaXaXaXaXaXaXaXaXaXaXaXaXaXaXaXaXaXaXaXaXaXaXaXaXaXaXaXaXaXaXaXaXaXaXaXaXaXaXaXaXaXeXp $ @.-.l.x.z.N.N.N.N.N.N.N.",
"N.N.N.Z.N.N.N.B.x.;.Z.V.W % p 9XaXaXaXaXaXaXaXaXaXaXaXaXaXaXaXaXaXaXaXaXaXaXaXaXaXaXaXaXaXaXaXaXaXaXaXpXpXpXaXaXaXeXp $ O.*.f.m.N.B.N.N.N.N.N.N.",
"N.N.N.N.N.N.N.N.Z.N.N.N.4.$ y 9XaXaXaXaXaXaXaXaXaXaXaXaXaXaXaXaXaXaXaXaXaXaXaXaXaXaXaXaXaXaXaXaXaXaXaX) z oXaXaXaXeXp $ O.-.l.Z.B.N.N.N.N.N.N.N.",
"N.N.N.N.N.N.N.N.N.Z.N.N.4.$ p 9XaXaXaXaXaXaXaXaXaXaXaXaXaXaXaXaXaXaXaXaXaXaXaXaXaXaXaXaXaXaXaXaXaXaXaXl   d.aXaXaXeXp $ 4.B.B.Z.N.N.N.N.N.N.N.N.",
"N.N.B.B.B.B.N.N.N.N.N.N.4.- p 9XaX.X_ OXaXaXaXaXaXaXaXaXaXaXaXaXaXaXaXaXaXaXaXaXaXaXaXaXaXaX5X) | | | }.|.7XaXaXaXeXp $ @.B.N.N.N.Z.N.N.N.N.N.N.",
"N.Z.B.l.f.m.N.N.N.N.N.N.#.- p 9XaXI   | aXaXaXaXaXaXaXaXaXaXaXaXaXaXaXaXaXaXaXaXaXaXaXaXaXaX.X. . . X 5XaXaXaXaXaXeXp % @.B.N.N.N.N.N.N.N.N.N.N.",
"N.N.N.k.z.m.B.N.N.N.N.N.#.- 6 eXaX! . X.aXaXaXaXaXaXaXaXaXaXaXaXaXaXaX3X|.3XaXaXaXaXaXaXaXaX5X) | ) | 9XaXaXaXaXaXeX6 - 4.N.N.N.N.N.B.B.z.l.N.N.",
"N.N.Z.k.t.B.N.N.N.N.N.N.#.$ p eXaXI   | aXaXaXaXaXaXaXaXaXaXaXaXaXaXaX)   ! aXaXaXaXaXaXaXaXaXaXaXaXaXaXaXaXaXaXaXtX6 o O.x.N.B.N.B.B.B.l.m.N.N.",
"B.Z.S.j.$.j.N.C.Z.N.N.N.4.% p 9XaXd.z }.aXaXaXaXaXaXaXaXaXaXaXaXaXaXaX| X } aXaXaXaXaXaXaXaXuX6X7X6X7X6X5XtXaXiX5X%XN g 4.v.Z.C.N.B.N.N.N.B.B.N.",
"N.n.Z.j.*.s.V.N.N.N.N.N.4.@ 1 eXaXpXiXpXaXaXaXaXaXaXaXaXaXaXaXaXaXaXaX)   ! aXaXaXaXaXaXaXaX+X@ $ - - - o {.aX#X% s w.q.n.B.B.N.N.N.N.N.N.N.N.N.",
"N.N.N.B.Z.Z.N.N.N.N.N.N.4., i 9XpXaXaXaXaXpXpXpXpXpXpXaXaXaXaXaXaXaXaXX.O | aXaXaXaXaXaXaXaX+X@ - - - - + }.aX#Xo t B.Z.v.C.N.N.N.N.N.N.N.N.N.N.",
"N.N.N.B.Z.B.N.N.N.N.N.Z.v.5.3.C k %XaXaXaX8Xx k l k %XaXaXaXaXaXaXaXaXrX7XeXaXaXaXaXaXaXaXaXiX7X8X8X8X7X7XtXaX#X$ 3 9.B.N.Z.N.N.N.N.N.N.N.N.N.N.",
"N.N.N.N.N.N.N.N.Z.N.N.N.N.v.k.s . OXaXaXaX3Xo X o X |.aXaXaXaXaXaXaXaXaXaXaXaXaXaXaXaXaXaXaXaXaXaXaXaXaXaXaXaX*X+ > 9.N.N.N.N.N.N.N.N.N.N.N.N.N.",
"N.N.N.B.N.N.N.N.N.N.Z.N.N.B.b.u @ +XaXaXaXtXOXoXoXoX9XaXaXaXaXaXaXaXaXaXaXaXaXaXaXaXaXaXaXaX4XY o.iXaXaXaX+XU [ 2.3.N.N.N.N.Z.N.N.N.N.B.B.N.N.N.",
"N.N.N.N.N.N.N.C.q.B.m.m.N.B.h.> o $XaXaXaXaXaXaXaXaXaXaXaXaXaXaXaXaXaXaXaXaXaXaXaXaXaXaXaXaX.X  - aXaXaXaXo.  b N.N.Z.j.k.B.N.N.N.N.N.z.z.B.N.N.",
"N.N.N.N.N.N.N.N.q.j.j.m.N.B.v.A S p.|.|.}.@XaXaXaXaXaXaXaXaXaXaXaXaXaXaXaXaXaXaXaXaXaXaXaXaX6X_ o.|.}.|.|.[ B [ N.N.C.i.i.g.k.B.N.N.N.x.x.N.Z.N.",
"N.N.N.N.N.N.N.Z.B.&.v.m.m.N.N.N.N.` o @ X z aXaXaXaXaXaXaXaXaXaXaXaXaXaXaXaXaXaXaXaXaXaXaXaXaXaXiX= o + + [ N.N.N.B.x.V.M.0.x.m.Z.N.N.N.N.N.N.N.",
"Z.N.N.N.N.N.B.Z.l.;.j.&.Z.N.N.N.N.] 7 f f Z 4X5X5X5X5X5X5X5X5X4X5X5X5X5X5X5X5X5X5X5X5X5X5X4X5X5X@XN d f u 3.N.N.N.N.x.A.,.<.,.g.N.B.N.N.N.N.N.N.",
"N.N.N.N.N.N.B.N.f.;.j.g.n.N.N.N.N.B.v.t.N.8., : > , > , : - - * * * * : > , ; ; ; ; , : - - - # v &.l.n.x.B.N.N.N.N.V.m.>.>.g.k.N.Z.N.N.N.N.N.N.",
"N.N.N.N.N.N.N.N.B.V.Z.B.N.N.N.N.N.N.Z.q.0.u.> - - : > > 5 a u 7 4 4 4 3 3 5 7 7 7 7 5 4 5 d 5 6 n 9.B.a.v.B.N.N.N.N.N.N.B.V.Z.m.N.N.N.N.N.N.N.N.",
"N.N.N.N.N.N.N.Z.N.B.N.N.N.N.N.N.B.N.B.;.,.e.r > 3 3 3 , ~ :X>X>X;X>X>XT 4 L R.R.R.T.z p Q.:X;X;XXXm i f 7 3.Z.N.N.N.N.N.Z.N.N.N.B.N.N.N.N.N.N.N.",
"N.N.N.N.N.N.N.N.N.N.N.N.N.N.B.N.N.N.S.-.;.5.4 > , u u , ( qX1X1XwX1X1X( # H _.).).(.G 4  XwX1XwX,X> % , # 2.B.N.N.N.N.N.Z.N.N.N.N.N.N.N.N.N.N.N.",
"N.N.N.N.N.N.N.V.V.N.N.N.N.N.N.N.N.N.N.6.B V , > 3 u ^ I.L.T Q Q T Q U L.P.G.D J /./.w * Q.wX<X<X,XXXXXXXXX{ B R Z.N.N.N.B.Z.N.N.N.N.N.N.B.N.N.N.",
"N.N.m.v.N.N.N.N.B.N.N.N.N.N.N.N.N.N.N.2.O # - : # $ I.`.H.+ # @ + + o H.`.H.o < (.).8 @ Q.wX1X<X<X1X1X1XwX:.o n N.N.N.N.V.y.N.n.N.N.N.N.N.N.N.N.",
"N.N.C.C.x.N.N.N.N.N.N.N.N.N.N.N.B.3.2.S $ - @ : ! X./ G.K ^ J J J J J D.G.L.X. .G.G.J J L.Q.XX<X<X<X<X<XwX:.+ C B.B.N.N.B.B.N.N.N.C.k.B.N.V.B.N.",
"N.N.C.C.N.N.N.N.N.N.N.N.N.N.N.N.n.V . + - - @ ; yXaX{ O F ).(.(.(.).).D o { aX0X* + T._.F o Q wX1X1X1X1XwX:.. ` Z.B.B.B.N.N.N.N.C.C.x.N.N.N.N.N.",
"N.N.C.N.Z.N.N.N.N.N.N.N.N.Z.N.e.6.' M j $ 1 0 D OX=X_ 9 F.(././.^./.(.D.9 _ 3XoXz D R.).J.0 / -X-X-X-X-X-X( x { 6.5.v.B.N.N.B.N.v.N.N.C.N.N.N.N.",
"N.N.N.N.N.N.N.N.N.N.N.N.N.B.9.f $ OXaX}.+ 0 /.~.8 @ H.(././././././.^.^./.H.& 8 W.W./.^.^.(.P.- $ @ @ + + ].pX+X$ d 9.B.N.N.N.N.N.N.N.C.m.N.N.N.",
"N.N.N.N.N.N.B.N.N.N.N.N.N.N.c.u # +XaX}.@ 0 (./.0 @ P.)./././././././.(.).H.% 9 W.(././.(.).P.@ - , , , : |.aX%X@ u c.B.Z.B.N.N.N.N.N.N.N.N.N.N.",
"N.N.N.N.N.N.N.N.N.N.N.N.N.N.9.d @ +XaX}.+ 0 ^.(.R.R.W././././././././././.~.R.R./././././.(.P.+ j 6X9X9X9XiXaX#X$ u c.Z.k.M.Z.N.N.N.N.N.N.N.N.N.",
"N.N.N.N.N.N.q.C.Z.B.N.N.N.N.c.u @ +XaX}.+ 0 ~.(./.(.(././.(././././././././.(.(./././././.).P.+ k aXaXaXaXaXaX#X$ u &.Z.t.q.B.N.x.C.N.N.N.N.N.N.",
"N.N.N.N.N.N.y.y.N.n.N.N.N.B.c.d @ OXaX}.+ 0 ^.(./././././././././././././././././././././.(.P.+ l yXaXaXaXaXaX#X$ 5 a.n.M.&.k.x.C.B.N.N.N.N.N.N.",
"N.C.C.B.B.B.0.&.x.z.x.Z.N.N.c.u + #XaX.X+ 0 ~.(./././././././././././././././././././././.).I.+ s aXaXaXaXaXaX$Xo 3 g.Z.t.%.a.z.N.B.N.N.N.N.N.N.",
"N.N.N.N.N.B.q.-.l.m.N.N.N.N.n.R ' ..].I @ 0 ^.(././././././.^././.^./././././././././././.(.T.K ^ ].'.].].].].p.S [ n.V.k.&.x.m.N.N.N.B.N.N.N.N.",
"N.N.N.N.N.N.N.Z.N.N.N.N.N.N.N.N.B.V   o & D ^.)./././././.(.(./././././././././././././././.(._.~.O . + + + o N N.N.N.N.Z.Z.N.N.N.N.N.V.V.N.N.N.",
"N.N.N.N.N.N.Z.Z.Z.N.N.Z.B.N.N.B.b.2.N g $ 8 I.Y.~.(./.(.E.U.Y.^././././././././././././././.E.U.I.S V n n n 7 ] N.N.N.N.N.N.N.N.N.N.N.N.B.N.N.N.",
"N.N.N.N.N.N.N.N.N.N.Z.k.j.B.B.B.k.B.Z.2.$ $ @ $ R.).(.).H.@ 0 /.).(.(.(.).(.(.(.).(.(.(.(._.I.- v b.N.N.N.N.N.N.N.N.N.N.N.N.N.N.N.N.N.N.C.N.N.N.",
"N.N.N.v.N.N.N.N.N.N.Z.k.0.N.V.;.%.n.n.2.# : e h Y.W.E.!.D.@ 8 R.!.E.E.E.E.E.E.E.E.E.E.E.E.!.K.> v B.N.N.N.N.N.N.N.N.N.N.N.B.B.N.N.N.N.N.N.N.N.N.",
"N.N.v.x.Z.N.N.N.N.N.N.N.i.r.l.,.j.z.m.R + x 9X9XG < 2 6 1 - : 2 2 2 2 2 2 2 2 2 2 2 2 2 2 8 7 4 d w.N.N.N.N.N.N.N.N.N.N.N.A.l.v.N.N.N.N.N.N.N.N.",
"N.N.N.N.N.N.N.N.N.N.N.Z.y.$.l.<.x.x.N.R + P aXaXl + @ @ * - $ & @ @ @ @ @ @ @ # @ & @ @ @ @ - > d k.N.B.Z.N.N.B.N.N.Z.v.k.x.k.N.N.N.N.N.N.N.N.N.",
"N.N.N.N.N.N.N.N.N.N.N.V.j.*.;.>.l.N.N.R + M aXaX3X#X%X&XX.+ j #X%X&X&X%X&X&X%X&X&X%X&X&X%X&Xo.$ f n.B.C.C.C.B.N.N.N.N.N.m.B.N.B.N.N.N.N.N.N.N.N.",
"N.N.N.N.N.N.N.N.N.N.N.Z.x.>.-.z.C.N.N.R + M pXaXaXaXaXaXOXX M aXaXaXaXaXaXaXaXaXaXaXaXaXaXaX&X@ u q.Z.j.j.Z.m.x.N.B.N.N.N.N.N.N.N.N.N.N.N.N.N.N.",
"N.N.N.N.N.N.N.N.N.N.N.N.Z.Z.C.N.N.N.N.R + M pXaXaXaXaXaX|.o x pXaXaXaXaXaXaXaXaXaXaXaXaXaXaX+X@ 5 0.V.q.&.n.x.N.B.N.N.N.N.N.N.N.B.N.N.N.N.N.N.N.",
"N.N.N.N.N.N.N.B.N.N.Z.N.C.Z.N.N.N.C.C.R X M aXaXaXaXaXaXOXX M aXaXaXaXaXaXaXaXaXaXaXaXaXaXaX#Xo = s.n.k.$.;.n.N.B.N.N.N.N.N.B.C.k.B.m.N.B.N.N.N.",
"N.N.N.N.B.N.N.N.N.N.N.N.N.N.N.N.N.N.N.1.N ' *X*X=X*X*X*XX.+ j %X&X=X&X&X*X*X*X&X*X*X=X%X&X&Xd.N C s.m.t.*.>.A.m.B.N.N.N.N.N.B.N.j.t.C.z.N.B.N.N.",
"N.N.Z.k.M.B.N.N.N.N.N.N.N.N.N.N.N.N.N.N.m.8.$ $ $ $ * $ - - - $ $ - - - - $ - * $ * $ - $ # V l.A.V.B.C.j.k.m.N.B.N.N.N.N.N.N.Z.x.-.V.m.z.N.N.N.",
"N.N.V.<.<.V.N.N.N.N.N.N.N.N.N.N.N.N.N.N.Z.e.r > 3 3 3 u u u u 5 u 3 5 u 3 3 3 3 3 3 3 3 5 = ' V.V.N.N.N.V.B.N.N.N.N.N.N.N.N.N.B.x.=.;.z.m.N.N.N.",
"N.N.Z.j.=.l.V.B.N.N.N.N.N.N.N.N.N.N.N.N.Z.n.9.9.9.9.9.9.9.9.9.9.9.9.9.9.9.9.9.9.9.9.9.9.9.9.t.B.N.N.N.N.B.N.N.N.N.N.B.N.N.N.Z.B.C.$.=.m.N.N.N.N."
};
