/* XPM */
static char *_4182056fbe648ed9da5776ab962ae07HVpCnOmVtdHi2Xot[] = {
/* columns rows colors chars-per-pixel */
"72 72 225 2 ",
"   c #020000",
".  c #0B0000",
"X  c #130000",
"o  c #1C0100",
"O  c #1D0B0A",
"+  c #240200",
"@  c #2B0601",
"#  c #250903",
"$  c #2C0C03",
"%  c #2B0B0A",
"&  c #330603",
"*  c #310E02",
"=  c #2E1509",
"-  c #321205",
";  c #391603",
":  c #351509",
">  c #351A0B",
",  c #3A1B0B",
"<  c #270F16",
"1  c #331A14",
"2  c #3C1D11",
"3  c #311C1F",
"4  c #3B220E",
"5  c #3D2512",
"6  c #3E2913",
"7  c #3A2118",
"8  c #3D2B1A",
"9  c #352228",
"0  c #2B223C",
"q  c #352939",
"w  c #352A3A",
"e  c #3E313E",
"r  c #431E0F",
"t  c #43220D",
"y  c #4B270E",
"u  c #422414",
"i  c #422C15",
"p  c #462C17",
"a  c #432419",
"s  c #532D15",
"d  c #45331A",
"f  c #48341A",
"g  c #583618",
"h  c #442A24",
"j  c #4D3026",
"k  c #4D332B",
"l  c #55382A",
"z  c #483736",
"x  c #573D36",
"c  c #66431E",
"v  c #724A1E",
"b  c #544625",
"n  c #534F31",
"m  c #5B433B",
"M  c #684A27",
"N  c #67562D",
"B  c #755629",
"V  c #7B5C2C",
"C  c #715436",
"Z  c #676538",
"A  c #7A6435",
"S  c #3B3855",
"D  c #373961",
"F  c #453E41",
"G  c #3D4265",
"H  c #3C4571",
"J  c #364278",
"K  c #505050",
"L  c #674F46",
"P  c #6E564E",
"I  c #6B5A59",
"U  c #715B56",
"Y  c #5F635B",
"T  c #6B7443",
"R  c #737B46",
"E  c #62645A",
"W  c #79635A",
"Q  c #6D7452",
"!  c #4A5172",
"~  c #57616C",
"^  c #7F6A64",
"/  c #766868",
"(  c #706F6F",
")  c #825C28",
"_  c #856637",
"`  c #8A753C",
"'  c #897A45",
"]  c #8C734F",
"[  c #876B52",
"{  c #816D66",
"}  c #836F68",
"|  c #86736B",
" . c #957B64",
".. c #857773",
"X. c #8A7670",
"o. c #8D7B74",
"O. c #748349",
"+. c #7A834B",
"@. c #7E8A4F",
"#. c #778652",
"$. c #7F8B51",
"%. c #68985C",
"&. c #6BA351",
"*. c #79A45B",
"=. c #5E8B68",
"-. c #6F8B6F",
";. c #769A68",
":. c #7D9D6B",
">. c #6B8775",
",. c #7C9772",
"<. c #7DA263",
"1. c #9D803F",
"2. c #83894E",
"3. c #998747",
"4. c #93984C",
"5. c #838D51",
"6. c #879756",
"7. c #989956",
"8. c #A2924E",
"9. c #A19853",
"0. c #8DA35E",
"q. c #84AB5D",
"w. c #88AB5D",
"e. c #9CA35C",
"r. c #9AA65D",
"t. c #8CB356",
"y. c #8CB15C",
"u. c #98B85C",
"i. c #A0A65C",
"p. c #A2BF5D",
"a. c #839E69",
"s. c #968174",
"d. c #839A75",
"f. c #A38F7C",
"g. c #82A563",
"h. c #8EA363",
"j. c #85A961",
"k. c #8BAC63",
"l. c #86A36A",
"z. c #8BA36C",
"x. c #8FA96A",
"c. c #91A760",
"v. c #93AD65",
"b. c #9BAD62",
"n. c #93AC6A",
"m. c #95AB6C",
"M. c #8FB062",
"N. c #97B267",
"B. c #98B366",
"V. c #9EB963",
"C. c #96B168",
"Z. c #99B368",
"A. c #8FA273",
"S. c #A1B864",
"D. c #3F5087",
"F. c #3E518B",
"G. c #3C538C",
"H. c #3E5CA5",
"J. c #43558D",
"K. c #425B99",
"L. c #556588",
"P. c #415EA5",
"I. c #4366A7",
"U. c #4267B6",
"Y. c #446DC3",
"T. c #4672CB",
"R. c #4678D8",
"E. c #477CE4",
"W. c #477FEA",
"Q. c #7B9491",
"!. c #4782E9",
"~. c #4882EC",
"^. c #4682F2",
"/. c #4985F5",
"(. c #4987F9",
"). c #4A8BFE",
"_. c #4B93FF",
"`. c #4D9CFF",
"'. c #52ACFF",
"]. c #9A8A83",
"[. c #9C8E8B",
"{. c #A08E81",
"}. c #A3948C",
"|. c #A39691",
" X c #A69995",
".X c #A89C98",
"XX c #82A199",
"oX c #ADA09B",
"OX c #8AB1AC",
"+X c #B3A7A4",
"@X c #B5AAA6",
"#X c #B9AEAA",
"$X c #BDB2AE",
"%X c #BEB4B2",
"&X c #BFB9B7",
"*X c #C2B6AB",
"=X c #C2B8B5",
"-X c #C3BAB6",
";X c #C5BDBA",
":X c #CAC1BE",
">X c #95C5C4",
",X c #9FD9D7",
"<X c #A3D5C6",
"1X c #A3DAD7",
"2X c #A6EBEC",
"3X c #B2FEFF",
"4X c #BCFFFF",
"5X c #C6C1C1",
"6X c #CDC4C2",
"7X c #D2CBC7",
"8X c #D4CDCB",
"9X c #D7D1CF",
"0X c #DAD4D2",
"qX c #DAD6D5",
"wX c #E2DEDC",
"eX c #E7E2DE",
"rX c #C3FFFF",
"tX c #E6E2E0",
"yX c #E9E6E4",
"uX c #EFEDEC",
"iX c #F1EFEB",
"pX c #F2F0EF",
"aX c #F5F4F3",
"sX c #F8F7F7",
"dX c #FFFFFF",
/* pixels */
"N.N.B.n.m.<.M.B.Z.Z.N.N.N.N.N.N.N.N.N.N.N.Z.N.N.N.N.N.N.N.N.N.N.N.N.Z.N.N.N.N.N.N.N.N.N.N.N.B.N.N.N.N.N.N.N.N.N.N.N.N.N.N.N.N.N.N.N.N.N.N.N.N.N.",
"N.N.B.n.d.;.j.N.Z.Z.N.N.N.N.N.N.C.Z.N.N.N.N.N.N.N.N.N.N.B.B.N.N.N.B.N.N.N.N.N.N.N.N.N.N.B.N.B.B.N.N.N.N.N.N.N.N.N.N.N.N.N.N.N.N.B.N.N.N.N.N.N.N.",
"N.N.N.B.x.d.<.N.Z.N.N.N.N.N.N.Z.N.N.N.N.N.B.Z.N.N.N.N.N.Z.n.N.N.N.B.N.N.B.Z.N.N.B.N.N.N.N.N.N.B.Z.B.N.N.N.N.N.N.N.N.n.N.N.N.N.N.N.N.N.N.N.B.N.N.",
"N.N.N.N.N.V.B.B.N.N.N.N.N.N.N.N.C.7.R O.O.O.O.2.B.N.Z.N.r.O.O.O.+.b.N.7.T 6.Z.N.B.B.5.O.+.R 6.Z.b.+.O.+.+.@.O.$.N.N.V.B.N.N.N.N.N.N.N.N.N.N.N.N.",
"N.N.N.N.N.N.B.N.N.N.N.N.N.N.N.N.B.) o $ @ @ o r r.Z.n.B.3.$ = $ i r.B._ X A Z.N.B.B.M # @ X V n.i.* + $ # * * N N.B.V.B.N.N.N.N.N.N.N.N.N.N.N.N.",
"N.N.N.N.B.N.N.N.N.N.Z.N.N.N.N.0.e._ h j j j h l 9.r.r.b.' $ * $ t 9.i.V O V 0.0.i.r.g $ a h _ e.8.l h j k 2 # V N.B.n.N.N.N.Z.N.N.N.N.N.N.N.N.N.",
"N.N.N.N.N.N.N.N.N.N.M.y.Z.N.k.f , @XuXuXuXuXuXwXl - u y t - - $ * t p , * , t t t t - @  XaX.X- l tXuXuXuX{ X V N.N.N.N.N.N.N.Z.N.N.N.N.N.N.N.N.",
"B.N.N.N.N.N.N.N.N.Z.k.*.V.n.h.6 # &XdXdXdXdXdXsXk + $ $ * - - - - $ # * - * $ $ $ $ - + +XdX#XX k dXdXdXdXo.X V B.N.N.N.Z.q.k.N.N.N.N.N.N.N.N.N.",
"N.N.N.N.N.N.N.N.N.V.<.,.j.g.c.p $ *XdXdXdXdXdXdX8X5XL + - + l 6X:Xj @ - + U 6X6X6X:Xk + k x o.5X8XdXdXdXdXwX:X}.c B v.B.B.q.q.w.C.N.N.N.N.N.N.N.",
"N.N.N.N.N.N.N.N.B.Z.l.:.:.:.b.p # %XdXdXdXdXdXdXdXdXW X + X x dXdXx + $ X } dXdXdXdXl X o   I dXdXdXdXdXdXdXdX-Xo > 0.N.B.Z.<.k.N.x.N.N.N.N.N.N.",
"N.Z.N.N.N.N.N.N.Z.N.N.N.Z.B.b.s o %XdXdXdXdXdXdXdXdX-X[.|.[.@XdXsXx o W [.;XdXyXo.X.}.[.|.[.;XdXdXdXdXdXdXdXdX#X$ p 0.N.N.N.;.:.;.x.B.N.N.N.N.N.",
"N.N.N.N.N.N.N.N.N.Z.B.Z.B.V.b.r X #XdXdXdXdXdXdXdXdXdXdXdXdXdXdXpXp . @XdXdXdX7XX X wXdXdXdXdXdXdXdXdXdXdXdXdX;X# d v.N.N.C.l.l.a.x.B.N.N.N.N.N.",
"N.N.N.N.N.N.N.N.N.C.n.N.b.7.3.[ I 8XdXdXdXdXdXdXdXdXdXdXdXdXdXdXsXo.I 5XdXdXdXeXW W wXdXdXdXdXdXdXdXdXdXdX8X@Xo.$ d c.N.N.N.B.B.V.N.N.N.N.N.N.N.",
"N.N.Z.N.N.N.N.N.N.C.k.N.@.+ 2 tXdXdXdXdXdXdXdXdXdXdXdXdXdXdXdXdXdXdXdXdXdXdXdXdXdXdXdXdXdXdXdXdXdXdXdXdXdX^ . + - p k.N.N.N.B.B.N.N.N.N.N.N.N.N.",
"N.N.N.N.N.v.N.B.N.k.v.N.$.% h tXdXdXdXdXdXdXdXdXdXdXdXdXdXdXdXdXdXdXdXdXdXdXdXdXdXdXdXdXdXdXdXdXdXdXdXdXdXf.9 a - p c.N.N.N.Z.N.N.N.N.N.N.N.N.N.",
"N.N.N.N.N.C.N.N.N.x.k.B.$.& a tXdXdXdXdXdXdXdXdXdXdXdXdXdXdXdXdXdXdXdXdXdXdXdXdXdXdXdXdXdXdXdXdXdXdXdXdXdXsXiX+X$ d c.N.N.N.N.N.N.N.N.N.N.N.N.N.",
"N.N.N.x.C.Z.N.N.N.g.d.B.@.$ a tXdXdXdXdXdXdXdXdXdXdXdXdXdXdXdXdXdXdXdXdXdXdXdXdXdXdXdXdXdXdXdXdXdXdXdXdXdXdXdX-X+ g b.B.B.B.N.N.N.N.N.N.N.N.N.N.",
"N.N.N.n.M.N.N.N.B.a.,.B.2.$ a tXdXdXdXdXdXdXdXdXdXdXdXdXdXdXdXdXdXdXdXdXdXdXdXdXdXdXdXdXdXdXdXdXdXdXdXdXdXdXdX#Xo g b.B.B.B.B.N.N.N.N.C.N.N.N.N.",
"N.N.N.N.N.N.N.N.N.n.z.N.2.$ a tXdXdXdXdXdXdXdXdXdXdXdXdXdXdXdXdXdXdXdXdXdXdXdXdXdXdXdXdXdXdXdXdXdXdXdXdXdXdXdX@XX y B.B.N.N.N.N.N.N.N.V.N.N.N.N.",
"N.N.N.N.N.N.N.N.B.B.B.Z.O.$ a tXdXdXdXdXdXdXdXdXdXdXdXdXdXdXdXdXdXdXdXdXdXdXdXdXdXdXdXdXdXdXdXdXdXdXdXdXdXdXdXwX|.]._ _ r.N.N.N.N.N.B.V.N.N.N.N.",
"N.Z.N.N.N.N.N.N.N.N.N.Z.O.$ a tXdXdXdXdXdXdXdXdXdXdXdXdXdXdXdXdXdXdXdXdXdXdXdXdXdXdXdXdXdXdXdXdXdXdXdXdXdXdXdXdXdXuX7 o #.N.N.N.N.N.n.N.N.N.N.N.",
"N.N.N.N.N.N.N.N.N.N.N.N.#.$ a tXdXdXdXdXdXdXdXdXdXdXdXdXdXdXdXdXdXdXdXdXdXdXdXdXdXdXdXdXdXdXdXdXdXdXdXdXdXdXdXdXdXwX7 - 6.v.B.N.N.N.Z.N.N.N.N.N.",
"N.N.N.N.N.N.Z.C.q.N.N.N.5.$ a tXdXdXdXdXdXdXdXdXdXdXdXdXdXdXdXdXdXdXdXdXdXdXdXdXdXdXdXdXdXdXdXdXdXdXdXdXdXdXdXdXdXwXu * 4.S.q.k.Z.N.N.N.N.N.N.N.",
"N.N.N.N.N.N.N.N.k.w.k.q.@.$ a tXdXdXdXdXdXdXdXdXdXdXdXdXdXdXdXdXdXdXdXdXdXdXdXdXdXdXdXdXdXdXdXdXdXdXdXdXdXdXdXdXdXwXu - 6.w.<.n.n.v.Z.N.N.N.N.N.",
"N.N.N.N.N.N.N.V.k.<.N.y.Q # 8 tXdXdXdXdXdXdXdXdXdXdXdXdXdXdXdXdXdXdXdXdXdXdXdXdXdXdXdXdXdXdXdXdXdXdXdXdXdXdXdXdXdXwXa $ 5.;.l.n.z.N.N.N.N.N.B.N.",
"N.Z.N.N.N.N.N.B.x.:.N.V.Q $ a tXdXdXdXdXsXsXdXdXdXdXdXdXdXdXdXdXdXdXdXdXdXdXdXdXdXdXdXdXdXdXdXdXdXdXdXdXdXdXdXdXdXwXa - O.=.d.m.N.N.N.N.N.N.N.N.",
"N.N.N.N.N.N.N.N.N.Z.N.N.2.$ a eXdXdXdX+Xz ^ dXdXdXdXdXdXdXdXdXdXdXdXdXdXdXdXdXdXdXdXdXdXdXdXdXdXdXdXdXdXdXdXdXdXdXqXa $ #.<.l.B.B.N.N.Z.N.N.N.N.",
"N.N.N.N.N.N.N.N.N.N.N.N.5.$ a tXdXdXdXs.  l dXdXdXdXdXdXdXdXdXdXdXdXdXdXdXdXdXdXdXdXdXdXdXdXdXdXdXdXdXdXdXdXdXdXdXwXa $ $.B.N.Z.N.N.N.N.N.N.N.N.",
"N.N.N.B.V.B.N.N.N.N.N.N.$.$ a tXdXdXdX0X X|.| { { ^ 8XdXdXdXdXdXdXdXdXdXdXdXdXdXdXdXdXdXdXdXdXdXdXdXdXdXdX#X/ .XdXtXa = $.N.N.N.N.N.N.N.N.N.N.N.",
"N.N.B.l.,.x.N.N.N.N.N.N.$.$ a eXdXdXdXdXdX8XX . . . oXdXdXdXdXdXdXdXdXdXdXdXdXdXdXdXdXdXdXdXdXdXdXdXdXdXdX^   P dXtX2 * 5.N.N.N.N.N.N.N.N.N.N.N.",
"N.N.N.x.z.n.B.N.N.N.N.N.$.$ a eXdXdXdXdXdXqX| ^ { ^ 8XdXdXdXdXdXdXdXdX6X.X6XdXdXdXdXdXdXdXdXdXdXdXdXdXdXdXX.X W dXwXa - $.Z.N.N.N.N.B.B.z.l.N.N.",
"N.N.B.k.y.V.N.N.N.N.N.Z.@.o 3 pXdXdXdXdXdXdXdXdXdXdXdXdXdXdXdXdXdXdXdXW   ^ dXdXdXdXdXdXdXdXdXdXdXdXdXdXdX}   P dXtX7 * #.M.N.N.N.N.B.B.l.n.N.N.",
"N.N.Z.g.%.l.N.N.Z.N.N.N.6.g M -X8XpXdXuX9X9X0X0X0X8XpXdXdXdXdXdXdXdXdX^ X { dXdXdXdXdXdXdXdXdXdXdXdXdXdXdX}.z o.dXwXa * #.v.B.B.N.N.N.N.N.B.Z.N.",
"N.Z.V.k.=.a.V.N.N.N.N.N.Z.b.i.s % %XdX}.+ * * - $ $ #XdXdXdXdXdXdXdXdXW   { dXdXdXdXdXdXdXdXdXdXdXdXdXdXdXsXaXdXdXyX3 $ $.n.Z.N.N.N.N.N.B.N.N.N.",
"N.N.N.B.V.B.N.N.N.N.N.N.Z.B.b.y o $XdX|.+ - - - * @ @XdXdXdXdXdXdXdXdX} O X.dXdXdXdXdXdXdXdXsXsXaXaXsXdXdXdXdXdXsX9Xa , $.C.N.N.N.N.N.N.N.N.N.N.",
"N.N.N.Z.B.B.N.N.N.N.N.N.N.v.0.5 $ %XdXuX0XqX0X0XqXqXaXdXdXdXdXdXdXdXdXyX9XyXdXdXdXdXdXdXdXdX-Xk l k x 0XdXdXdX;Xk C 9.6.v.Z.N.N.N.N.N.N.N.N.N.N.",
"N.N.B.N.N.N.N.N.Z.N.N.N.N.v.6.= # -XdXdXdXdXdXdXdXdXdXdXdXdXdXdXdXdXdXdXdXdXdXdXdXdXdXdXdXdX.XX o X o 6XdXdXdX@XX s b.N.N.N.N.N.N.N.B.N.N.N.N.N.",
"N.N.N.N.N.N.N.N.N.N.Z.N.N.N.Z.4.3.] I @XdXdXdXsXo.W 7XdXdXdXdXdXdXdXdXdXdXdXdXdXdXdXdXdXdXdXeX+X+X+X@XuXdXdXdX#X$ p c.Z.N.N.N.N.N.N.N.B.B.N.N.N.",
"N.N.N.N.N.N.B.k.q.N.n.n.N.Z.N.k.r.v   ..dXdXdXdX:   oXdXdXdXdXdXdXdXdXdXdXdXdXdXdXdXdXdXdXdXdXdXdXdXdXdXdXdXdX-Xo , k.w.k.B.N.N.N.N.B.l.l.B.N.N.",
"N.N.N.N.N.N.Z.N.y.k.j.n.N.N.N.N.N.2.N  . X.X X Xo./ 8XdXdXdXdXdXdXdXdXdXdXdXdXdXdXdXdXdXdXdXdXdXdXdXdX$X|..X Xs.A Z v.p.p.g.k.B.N.B.B.x.n.B.B.N.",
"N.N.N.N.N.N.N.Z.B.*.k.n.n.B.N.Z.N.N.N.1.o # o = aXdXdXdXdXdXdXdXdXdXdXdXdXdXdXdXdXdXdXdXdXdXdXdXdXdXdXl X # o ) B.B.x.Z.y.w.n.n.B.N.N.N.B.N.N.N.",
"N.Z.N.N.N.N.B.Z.l.:.j.*.Z.B.N.N.N.N.N.3.8 f f N $X8X7X8X8X7X8X8X8X8X8X8X8X8X8X8X8X8X8X8X8X8X8X8X8X8X7XP f f 8 ` N.B.x.A.<.<.<.a.N.N.N.N.N.N.N.N.",
"N.N.N.N.N.N.B.n.d.a.j.g.m.N.N.N.N.N.B.N.N.Z.N.b.c # - - - , > : ; ; - , > : * - * - - - : , , > > - 2 9.z.N.v.B.N.N.B.v.,.,.<.k.N.N.N.N.N.N.N.N.",
"N.N.N.N.N.B.B.B.B.Z.Z.Z.N.N.N.N.N.N.B.y.q.Z.v.r.M 7 p p i 4 6 i 8 8 8 6 5 , 5 5 6 6 i i 6 > : = : $ , 7.v.B.N.N.N.N.B.B.Z.B.B.Z.N.N.N.N.N.N.N.N.",
"N.N.N.N.N.N.N.N.N.N.N.N.N.N.N.N.B.B.S.2.5 f d M OX1X1X1X>.u n T.R.R.R.K 1 Y 1X1X1X,X1X<XQ , 4 4 5 > 5 7.B.B.N.N.N.N.N.N.B.Z.N.N.N.N.N.N.N.N.N.N.",
"N.N.N.N.N.N.N.N.N.N.N.N.N.N.N.N.N.B.S.' # > % > 2X4X4XrXXX3 F )._._._.G # ( rXrX4X4X4X4X( 1 6 4 2 > u i.v.N.B.N.N.N.N.N.B.Z.N.N.N.N.N.N.N.N.N.N.",
"N.N.N.N.Z.v.N.V.V.N.N.N.N.N.N.N.N.T N } OXXXOXOX2X4X3XrXXX& e (./.! S F.I.L.Y Y E Y E I L.I.! 6 4 > , B N 4.k.N.B.N.N.N.N.B.N.N.N.N.N.N.N.N.N.N.",
"N.N.v.C.N.N.N.B.B.N.N.N.N.B.Z.Z.v.b o >.rX4X4X4X3X3X4XrXQ.@ 9 _.).< o H.'.H.o + + @ % + H.'.I.= @ : : # O 3.v.N.N.N.N.N.B.V.N.N.N.N.N.N.N.N.N.N.",
"N.N.C.C.x.N.N.N.N.N.N.N.N.N.N.N.B.N @ >.4X3X3X3X3X3XOXQ.L.H H G.J.} X.L.G.D.H H H H H H D.G.L.X.W : - - * V 3.8.N.N.N.N.B.B.N.N.N.C.k.N.Z.V.B.N.",
"N.N.C.C.N.N.N.N.N.N.N.N.N.N.N.N.r.) . ( rX4X4X4X4X4XY o D `.T.+ & eXdX[ X S _._._.).)._.S o [ dXiX; + - - +   B N.N.N.B.N.N.N.N.C.C.n.N.N.C.N.N.",
"N.N.C.C.Z.N.N.N.N.N.N.N.N.N.v.6.7.[ x >.>X>X>X>X>X>X~ 0 G._.R.q z +X6X( 0 F.).(.(.(.(.).F.0 / 5X+XS q 1 * j m [ 7.i.B.B.N.N.B.N.v.N.N.C.C.C.N.N.",
"N.N.N.N.N.N.N.N.N.N.N.N.N.N.c.i $ *XdX[.o @ + $ - * P.).(././.).W.9 @ G.).(.(.(.(.(.(.(.(.).K.& 7 ^.(.q + }.sX@X@ f 0.B.N.N.N.N.N.N.N.C.C.C.N.N.",
"N.N.N.N.N.N.B.N.N.N.N.N.N.N.k.i $ -XdX X= 2 2 2 * @ P._.).(.(._.^.q % H._.).(.(.(.(.(.(.)._.P.% q (.).q +  XdX#X+ i c.n.Z.B.N.N.N.N.N.N.N.N.N.N.",
"N.N.N.N.N.N.B.N.N.N.N.N.Z.N.0.p $ $XdXiXwXwXwX8Xj @ P.).(.(.(.(.(.E.R.W.(.(.(.(.(.(.(.(.(.(.W.R.R.)./.q @ |.dX@X$ f c.Z.k.M.Z.N.N.N.N.N.N.N.N.N.",
"N.N.N.N.N.N.j.N.Z.B.N.N.B.B.0.d $ %XdXdXdXdXdXdXl + P._.(.(.(.(.(.).(.(.(.(.(.(.(.(.(.(.(.(.).).).)./.q + |.dX@X@ 6 q.b.q.w.B.N.x.C.N.N.N.N.N.N.",
"N.N.N.N.N.N.u.u.N.N.N.B.B.B.0.d @ %XdXdXdXdXdXuXj + P.).(.(.(.(.(.(.(.(.(.(.(.(.(.(.(.(.(.(.(.(.(.)./.q + |.dX@X$ i l.C.y.*.x.n.C.N.N.N.N.N.N.N.",
"N.C.C.N.N.N.t.*.x.a.z.B.B.N.0.> o :XdXdXdXdXdXdXs + K._.(.(.(.(.(.(.(.(.(.(.(.(.(.(.(.(.(.(.(.(./.).~.q + oXdX$Xo i h.Z.k.&.g.A.N.N.N.N.N.N.N.N.",
"N.N.N.N.N.N.q.;.d.n.N.N.B.N.k.3.`  .[.[.[.[.[.[.! J T.).(.(.(.(.(.(.(.(.(.(.(.(.(.(.(.(.(.(.(.(.(.).^.q @ P ]. .A T v.Z.k.*.x.n.N.N.N.N.N.N.N.N.",
"N.N.N.N.N.N.Z.Z.B.N.Z.N.Z.N.N.N.C.v X + + + X O /.`.).(.(.(.(.(.(.(.(.(.(.(.(.(.(.(.).).).(.(.(.)._.).S * +   B n.B.N.N.Z.Z.N.B.N.N.N.V.V.N.N.N.",
"N.N.N.N.N.N.Z.N.V.Z.N.Z.Z.v.N.N.N.` d b b b B C I.Y.E.(.(.(.(.(.(.(.(.(.(.(.(.(.(.(.Y.U.E.(.(.(.~.Y.U.9 @ g M 3.N.N.N.N.N.B.N.N.N.N.N.Z.N.N.N.N.",
"N.N.N.N.Z.N.N.N.N.N.Z.k.k.Z.B.B.k.B.B.N.B.B.B.S.c = I.`.).).).).).).).).).).).)._.(.q @ K._.)._.R.# @ * # 3.v.b.N.N.N.N.N.N.N.N.N.N.N.N.N.N.N.N.",
"N.N.N.v.B.N.N.N.N.N.N.x.*.B.Z.<.&.N.m.N.B.v.B.b.c > J.!.E.E.E.E.E.E.E.E.E.E.E.E.~.R.9 & J.~.E.~.Y.h r - $ 3.B.B.N.N.N.N.N.N.B.N.N.N.N.N.N.N.N.N.",
"N.N.n.k.N.N.N.N.N.N.N.C.p.y.x.<.k.z.n.N.N.N.N.c.f 4 8 9 3 3 3 3 3 3 3 3 3 3 3 3 3 3 : - 1 3 3 < x wXtXx + T N.N.N.N.Z.N.B.l.l.v.N.N.N.N.N.N.N.N.",
"N.N.N.N.N.N.N.N.N.N.N.Z.u.%.l.<.z.n.B.N.N.B.N.k.f > ; $ @ & @ @ @ * @ @ @ @ @ @ @ @ - - @ @ @ o j dXdXL + T N.B.N.N.Z.v.k.z.v.N.N.N.N.N.N.N.N.N.",
"N.N.N.Z.N.N.N.N.N.N.Z.V.<.=.,.;.l.B.Z.N.N.N.N.c.f $ s.&X-X-X-X-X-X-X-X-X-X-X-X-X-X%Xj + X.-X-X%X6XdXdXm + A Z.N.Z.N.N.N.v.N.N.N.N.N.N.N.N.N.N.B.",
"N.N.N.N.N.N.N.N.N.N.N.N.x.,.;.x.C.N.N.N.N.N.N.c.p $ &XdXdXdXdXdXdXdXdXdXdXdXdXdXdXdXm X @XdXdXdXdXdXdXm + T n.x.v.N.N.Z.B.N.N.N.N.N.N.N.N.N.N.N.",
"N.N.N.N.N.N.N.N.N.N.N.N.C.Z.N.N.N.N.N.N.B.Z.B.j.i $ @XdXdXdXdXdXdXdXdXdXdXdXdXdXdXsXx o .XdXdXdXdXdXsXm # Z x.N.B.N.N.N.N.N.N.N.B.N.B.B.N.N.N.N.",
"N.Z.N.N.N.N.N.Z.N.N.N.N.Z.Z.Z.N.N.N.N.N.B.B.n.0.> o &XdXdXdXdXdXdXdXdXsXdXdXdXdXdXdXm X +XdXdXdXdXdXdXm X K m.Z.Z.N.N.N.N.N.Z.C.k.B.n.n.B.N.N.N.",
"Z.Z.C.Z.B.Z.Z.N.N.N.N.N.N.N.N.N.N.N.N.N.N.N.N.v.V c f.:X;X;X;X;X-X:X-X:X;X;X;X;X;X-Xj O X.;X:X-X;X=X-X_ b Q A.n.N.N.N.N.N.N.N.N.q.y.n.x.N.B.N.N.",
"N.Z.Z.k.k.B.N.N.N.N.N.N.N.N.N.N.N.N.N.N.N.N.N.N.N.B.B # $ * $ - * * * * - $ - $ $ * - - * * * * * $ * 7.k.n.n.B.B.N.N.N.N.N.N.V.x.;.V.m.z.N.N.N.",
"N.N.S.<.<.V.N.N.N.N.N.N.Z.N.N.N.N.Z.N.N.N.N.N.Z.N.N.A = 6 4 4 4 4 4 4 6 4 t 6 i t 6 i i i t 6 6 5 > 5 i.V.B.B.B.N.N.N.N.N.N.N.B.x.-.:.z.n.B.N.N.",
"N.N.Z.k.=.x.B.N.N.N.N.N.N.N.N.N.N.N.N.N.N.N.N.N.N.N.r.0.0.0.0.0.0.0.0.0.0.0.0.w.0.0.0.0.0.0.0.0.0.0.0.B.B.N.N.B.N.N.N.N.N.N.N.N.N.%.-.n.N.N.N.N."
};
