/* XPM */
static char *_aea0a9401ed4763f64442e61874efe4doRlMd6IonouzxJW[] = {
/* columns rows colors chars-per-pixel */
"72 72 218 2 ",
"   c #020201",
".  c #060506",
"X  c #070906",
"o  c #0D0A01",
"O  c #0D0F0A",
"+  c #110C02",
"@  c #0E110B",
"#  c #191305",
"$  c #12140C",
"%  c #1D160D",
"&  c #070914",
"*  c #0A0B1C",
"=  c #0D1014",
"-  c #0E111F",
";  c #141914",
":  c #10141F",
">  c #231908",
",  c #1C231A",
"<  c #33240C",
"1  c #3D2C0C",
"2  c #25271A",
"3  c #342412",
"4  c #362715",
"5  c #322C14",
"6  c #3C2B15",
"7  c #3D2D19",
"8  c #121520",
"9  c #191B24",
"0  c #1F1D36",
"q  c #1E2325",
"w  c #252C22",
"e  c #2B3328",
"r  c #373827",
"t  c #262234",
"y  c #312F37",
"u  c #32313A",
"i  c #412E14",
"p  c #402E18",
"a  c #4B3612",
"s  c #45331A",
"d  c #4B361B",
"f  c #4E3A1C",
"g  c #523A17",
"h  c #533C1C",
"j  c #5A3D1E",
"k  c #473925",
"l  c #3E5130",
"z  c #56401A",
"x  c #5C441D",
"c  c #62451E",
"v  c #654A1E",
"b  c #6B4D1D",
"n  c #6F511E",
"m  c #74531E",
"M  c #79551F",
"N  c #77581E",
"B  c #7E5B1F",
"V  c #594426",
"C  c #404B33",
"Z  c #4D5A3A",
"A  c #644420",
"S  c #6A4722",
"D  c #6C4C21",
"F  c #654C29",
"G  c #734D23",
"H  c #784F25",
"J  c #6E5125",
"K  c #745322",
"L  c #7B5325",
"P  c #7D5A22",
"I  c #7A5A2C",
"U  c #54683E",
"Y  c #4A494E",
"T  c #5C6B46",
"R  c #5D6C46",
"E  c #5C784C",
"W  c #647548",
"Q  c #64734D",
"!  c #677451",
"~  c #577F71",
"^  c #6B6F67",
"/  c #7A7B76",
"(  c #815D1F",
")  c #815425",
"_  c #835C24",
"`  c #8A5E26",
"'  c #855629",
"]  c #875B28",
"[  c #8D5C29",
"{  c #935E2B",
"}  c #856123",
"|  c #8B6424",
" . c #8D6924",
".. c #87642B",
"X. c #8C6329",
"o. c #926627",
"O. c #936B26",
"+. c #936329",
"@. c #9C642D",
"#. c #936B2B",
"$. c #9C6C2A",
"%. c #977025",
"&. c #9C7125",
"*. c #9D722A",
"=. c #876534",
"-. c #936D33",
";. c #9E6934",
":. c #987435",
">. c #A1672E",
",. c #A26C2C",
"<. c #A17526",
"1. c #A27529",
"2. c #A57A2A",
"3. c #A87A28",
"4. c #AB7B2A",
"5. c #B17E2C",
"6. c #AA7932",
"7. c #B47C33",
"8. c #9D7B41",
"9. c #6A914F",
"0. c #758559",
"q. c #7C8D5E",
"w. c #68995B",
"e. c #77965C",
"r. c #6DA354",
"t. c #7CAA57",
"y. c #75A459",
"u. c #7BA45D",
"i. c #7DA85B",
"p. c #5E8C67",
"a. c #5D8074",
"s. c #698A6C",
"d. c #7C866A",
"f. c #6A9466",
"g. c #739B65",
"h. c #7A9F65",
"j. c #73966D",
"k. c #78966A",
"l. c #7C9C6B",
"z. c #698A72",
"x. c #7B9572",
"c. c #7CA262",
"v. c #7FA268",
"b. c #AE812A",
"n. c #B4842B",
"m. c #BB872D",
"M. c #B7892B",
"N. c #BC8A2D",
"B. c #AD8236",
"V. c #B38432",
"C. c #BA8832",
"Z. c #BC8B3B",
"A. c #C28E2E",
"S. c #C28D36",
"D. c #CB9436",
"F. c #C6913C",
"G. c #D39A37",
"H. c #DAA037",
"J. c #81945E",
"K. c #879C5F",
"L. c #83A55E",
"P. c #83AB5D",
"I. c #8AAE5E",
"U. c #8CB356",
"Y. c #8CB15C",
"T. c #93B65C",
"R. c #93B959",
"E. c #9BBB5C",
"W. c #A3BF5E",
"Q. c #828C6E",
"!. c #869A62",
"~. c #85946C",
"^. c #89976C",
"/. c #839E6A",
"(. c #899A6C",
"). c #838977",
"_. c #859676",
"`. c #849C74",
"'. c #909D71",
"]. c #83A564",
"[. c #8CA462",
"{. c #85A961",
"}. c #8CAC63",
"|. c #85A36A",
" X c #8CA36C",
".X c #8EAA6A",
"XX c #93AE66",
"oX c #91A76B",
"OX c #93AC6A",
"+X c #99AD6C",
"@X c #8FB062",
"#X c #97B267",
"$X c #98B366",
"%X c #99B465",
"&X c #9EB864",
"*X c #96B168",
"=X c #98B268",
"-X c #9AB369",
";X c #86A070",
":X c #8CA372",
">X c #A3BD62",
",X c #A0B669",
"<X c #A1B86A",
"1X c #C18F41",
"2X c #C39143",
"3X c #C6964A",
"4X c #CA9A4A",
"5X c #D59D42",
"6X c #DCA347",
"7X c #DEA54A",
"8X c #DEA64D",
"9X c #E3A94C",
"0X c #E6AF57",
"qX c #9BC450",
"wX c #AFC95A",
"eX c #B9CF5C",
"rX c #FFC55C",
"tX c #FFD367",
/* pixels */
"#X#X$XOX+Xc.@X=X$X*X#X#X#X#X#X#X$X#X#X#X*X$X$X*X#X#X#X*X#X#X#X#X#X#X$X#X*X#X#X#X$X#X#X#X#X#X$X*X#X#X#X#X#X#X#X*X#X#X#X#X#X#X#X#X#X*X$X#X#X#X#X$X",
"#X#X%XOX_.j.P.$X=X#X#X#X#X#X#X#X*X#X#X#X#X#X#X#X#X$X#X$X#X#X*X$X$X#X#X#X#X$X#X#X#X#X#X#X$X#X#X*X#X$X*X#X#X#X#X$X*X$X$X#X#X#X#X$X#X#X#X#X$X*X#X*X",
"#X#X#X%X.X`.c.#X-X$X#X#X#X#X#X#X$X#X#X#X#X*X#X*X#X#X#X#X*X$X#X#X*X$X*X#X=X=X*X#X#X#X$X#X#X#X#X$X*X#X$X#X#X#X#X$X#X#XOX#X#X#X#X#X#X$X#X#X#X$X*X$X",
"#X#X#X#X$X%X%X=X$X*X#X#X#X#X#X#X#X#X#X#X#X$X#X$X#X=X$X#X#X#X$X#X#X#X#X=X*X}.%X$X#X#X#X#X#X#X*X$X$X#X#X#X=X$X#X*X*X$X&X%X*X#X#X#X#X*X$X*X#X#X#X#X",
"#X#X#X$X*X#X$X*X*X$X*X$X#X#X#X#X#X#X#X#X*X$X#X#X$XOX*X#X$X*X#X#X*X$X$X=XP.P.+XOX=X#X#X#X#X#X#X*X#X#X#X#X*X*X#X#X*X$X>X%X*X#X#X#X#X#X#X$X#X$X#X#X",
"#X#X#X#X$X#X#X#X*X*X$X$X#X#X=X=X#X#X=X#X#X#X#X*X$X#X}.*XOX$X#X#X$X$X=X=XP.P.}.}.=X#X#X#X#X#X#X.X*X$X#X*X}.*X$X#X#X#XXXOX$X$X$X#X#X#X#X#X#X#X#X#X",
"#X$X#X#X*X*X#X#X$X*X$XY.=X#X#X#X*X$X#X#X#X$X$X$X#X.X.XXX#X#X#X#X=X#X#X=XP.{.j.|.=X$X*X*X#X*X}.*X*X%X%X.XXX*X#X#X#X#X$X#X#X#X=X=X#X#X#X#X*X$X#X#X",
"#X#X#X#X#X$X#X$X$X=X{.c.&X.X*X%X#X#X#X$X#X*X*X#X#X#X#X#X$X#X#X#X#X#X#X*XXXOX.XOX=X#X#X*X}.XX*X#X#X$X#XXX#X#X*X#X#X#X*X$X=XP.}.*X#X%X*X#X#X#X#X=X",
"$X#X$X#X#X#X*X#X$X&Xv.x.{.v.=X=X$X$X$X#X#X#X$X#X#X$X#X#X=X#X$X$X=X#X#X#X$X$X$X$X$X$X*X*X*X*X#X*X$X#X*X#X=X$X#X#X#X#X#X#X=XP.P.P.*XXX#X#X#X#X#X#X",
"*X#X*X*X#X#X$X#X*X&X|.l.v.l.-X$XXX$X=X#X#X#X#X#X#X#X#X*X*X=X=X$X*X#XXX#X$X*X$X$X*X*X*X$X$X$X#X$X#X*X$X#X#X#X#X#X#X#X#X#X=X=Xc.}.*XOX*X#X$X#X#X#X",
"#X#X#X$X#X*X#X#X*X#X#X%X*X#X=X$X$X$X$X$X#X#X#X#X#X#X=X}.u.XX=X}.y..XOX$X$X*X$X*X#X$X$X$X*X*X#X$X=X=X#X#X#X#X#X$X#X#X#X#X=X$Xj.l.g..X$X#X#X#X#X#X",
"#X$X#X#X#X$X#X#X=X#X#X#X%X#X#X$XXX$X*X=X$X#X#X#X#X#X*X=XT.I.*XP.c. X$X#X*X$X*X$X#X*X*X*X.X*X#X*X#X}.#X=X#X#X#X#X#X#X#X#X$X$X|.|./..X$X#X#X#X*X$X",
"#X*X$X#X#X#X#X#X#X*X*X#X*X$X#X#X$X*X$X$X#X#X#X*X#X$X#X.XeXqXh.l.oXOX$X$X$X$X$X$X#X*X#X#X*X*X$X$X#Xt.$X=X*X$XOX$X%X$X#X*X$X#X%X%X%X%X$X#X$X#X#X#X",
"#X#X#X#X#X*X#X#X#XXX}.=X#X*X#X#X$X*XXX$X#X#X#X*X#X#X$X$X.Xg.k.z. X%X=X#X*X*X$X$X#X$X@XY.=X#X=X=XY.@X=X$X$X$X=X$X%X$X#X#X*X$X=X$X*X#X=X#X*X#X#X#X",
"#X#X#X$X#XXX*X$X#X}.}.%X#X*X$X*X*X$X*X*X0., 2 w w w w w w q q w w 2 w w w w w w w w w 2 w w w 2 , w w w r XX#X#X#X#X$X#X$X#X#X#X#X#X*X#X#X#X#X#X",
"#X#X#X*X#X#X#X$X*X.X.X$X#X$X#X#X*X$XXXI.Z X X o + % + o + o o o + + + + o o o + o o + o o o + $ # o . o o e.XX#X#X#X#X#X*X#X#X#X#X#X$X#X#X$X#X#X",
"#X=X*X.XXX#X#X#X$X].l.$X=X$X#X$X#X#XI.. 6 4.4.N.7X9X7X7X7X7X8X7X7X7X7X9X7X7X7X7X7X7X7X7X8X6X8X0X0XF.n.4. .  Z #X#X#X$X#X#X#X#X#X#X#X#X*X#X#X#X#X",
"#X#X#XOX*X#X#X#X$X|.x.$X$X#X#X#X%X0.T < m G.| K -.-.-.-.-.-.-.-.-.-.-.-.-.-.-.-.-.-.-.-.-.-.8.:.:...b n.C.1 r 0.L.#X#X#X#X#X$X#X#X#X#XXX*X#X#X#X",
"#X$X#X$X#X#X#X#X$XOX X$X=X%X#X#X#X@ > 4.G.rX3   .   .             . o @ ; ; $ @ o     X   . . .       6.rXG.v   R $X#X#X#X#X#X#X#X#X#X&X$X#X#X#X",
"#X#X#X#X$X#X#X#X*X*X%X$X}.|.#X$X#X, + H.-.z Y ! J.q.q.0.0.0.q.q.q.q.J.J.K.L.!.!.!.e.q.J.q.d.J.0.0.d.Y k A G.m   W %X#X#X#X#X#X#X#X#X%X&X%X#X#X#X",
"$X#X#X#X#X#X#X#X$X#X#X=X{.E.>X.XXX2 3 rXF . ^ *X$X#X#X#X#X$X#X#X$X*X$X#X*X$X#X$X=X#X#X#X$XXX=X$X*X*X_.&   8X-.  R @X=X*XXX#X#X#X$X#X#X#X*X*X*X%X",
"#X#X#X#X#X#X#X#X=X#X=X=X*XR.%XT @ J V.tX..@ k.#X#X=X#X#X#X#X#X#X$X$X#X#X#X#XXX*X#X#X#X#X#X*X#XXXXX#X)..   9XH.&.i , .X>X>XOX$X$X*X$X#X#X#X$X*X#X",
"#X#X#X#X#X#X=X*Xi.=X$X$X<Xu.].T   O.F.:.j y J.XX$X$X#X#X#X#X#X#X#X$X#X*X#X$X#X#X#X#XXX*X#X#X*XXX XXXd.u 9 ' :.D.i   XX%XwX>XL.@X=X*X$X*X#X$X*X#X",
"#X#X$X#X#X#X#X#X@XP.}.{.=Xl.r.U X 6.-.  0 ).oXXXXXOXXX#X#X#X$X#XOXOX$X$X*X$X#X#X#X*X$X#X#X#X$X#XXX*X(.oX/   < G.i @ XXXX=X}.c.OXoXXX$X#X#X#X$X#X",
"#X$X*X#X$X#X#X=X}.u.*XY.g.a.f.R = #...  t '.*X#X#X#XOX$X$X*X$XOX.X`.#X$X#X#X$X$X$XXX=X*X$XXX#X$X=X#X=X%X^.$ < A.4 O XX$X%Xf.|.XX|.=X$X#X$X#X#X#X",
"#X#X$X#X#X#X#X%XOXl.*X&X|.z.j.Q   P L   t '.*X=X#X=XXXXX=X$X#X#X#X#X#X#X#X#X#X#X$X*X$X$X#X=X$X#X*X=XXX$X~.O < 6.< O XX=XP.s./.+X#X$X=X#X*X#X#X$X",
"*X#X*X#X#X*X#X#X$X=X*X=X$X%X$XQ   ` P   t ^.*X*X=X=X{.i.=X=X#X#X#X$X#X#X#X$XI.#X$X$X=X*X$XXX=XXXt.}.OXOXd.X < V.< $ XX$X*Xg.(.=X%X*X#X#X$X#X#X*X",
"$X#X#X$X#X#X#X#X*X%X*X=X$X$X$XR   } I   t ^.*X+X$X#XY.}.*X#X#X#X#X#X#X#X#X$XE.U.XX*X$X*XXXOX$X$XR.U.XX Xd.  < 7.3 @ XX*X$X%X%X=X#X#X#X$X#X#X#X#X",
"#X#X#X%X%X%X*X#X$X*X#X#X$X*X#XR   _ L   y  X*X*X=XY.e.`.#X#X#X#X#X$X#X#X*X#XR.w.XX*XXX*XXXXXXX=XwXT. X|.~.  < 5.3 @ *X#X#X#X#X#X#X#X#X#X#X#X#X#X",
"*X$X%X|.x.OX%X$X#X#X*X$X#X#X=XR   X.X.  u  X=X*X*X$X|.|.$X#X#X#X#X#X#X$X#X#X}.|.XX*X=X$X=X$X*X$XT.}.>X(.~.. < N.5 : *X*X#X#X#X$X#X#X#X#X$X#X#X#X",
"#X$X#X.X XOX%X$X#X#X#X#X$X$X*XQ   &.%.  t / ^.d.d.Q.^.^.~.(.^.^.^.^.(.(.(.^.(.(.~.^.^.~.~.~.~.^.x.s.[.(.^   1 G.k = *X*X$X#X#X#X#X#X#X%X|. X#X#X",
"$X*X=X}.Y.%XXX=X*X$X#X#X*X[.e r b B B b 4 * 8 * * * - - : : 8 q 9 : 8 : : 8 * * * * * * * * * * - 9 9 - * g N #.N g 5 U .X.X*X$X#X#X$X#X XoX#X#X",
"$X=X=XP.w.[.#X#X$X#X*X#XXX0.  a 4._ B 4.z   . .   . X   .   X 2 + .   . .     X . . o X . .   . .   X   + :.*.K O. .+ e [.OX#X#X#X#X$X*X$X$X$X*X",
"#X%X-X}.s.|.%X#X*X#X$X#Xw 5 5X3X2XF.2X3X2X1XF.2X2X1XF.2XS.2X3X3X1X2X2X2XF.1X2X2X2X2X2X2X2XF.1X2XF.1X2X1X2X4X3X2XF.2X8X=.$ *X#X#X#X#X*X#X$X#X#X#X",
"#X#X#X$X#X#X#X#X$X*X*X#X; > 5XF.Z.Z.Z.Z.S.F.F.F.F.F.F.F.2X4X2XF.F.F.F.F.F.F.F.F.F.F.F.F.F.F.F.F.F.F.F.F.F.Z.Z.Z.Z.S.9XX.  *X$X*X$X#X#X#X#X#X#X$X",
"$X*X#X#X#X#X#X#X$X#X=X*X2 # 4.1.&.&.&.&.&.&.&.&.&.%.&.*.6.1.&.&.&.&.&.&.&.&.&.&.&.&.&.&.&.&.&.&.&.&.&.&.&.&.&.&.&.&.n.b X $X#X#X*X#X#X#X#X#X*X#X",
"#X#X#X*X#X#X#X#X$X*X$X#X; # m.4.<.1.1.1.<.1.<.<.<.2.6.2.2.<.<.1.1.1.1.1.<.1.1.<.1.1.<.<.1.1.<.3.1.<.1.1.<.1.<.1.1.1.A.m   #X#X#X#X#X$X#X#X#X#X$X",
"#X#X#X$X#X#X#X#X=X*X$X#X, > 3.4.<.<.1.<.<.<.1.1.<.2.B.*.<.<.<.1.<.1.<.<.<.<.1.1.1.<.1.1.*.1.<.1.1.1.1.<.*.1.<.<.<.1.A.m @ #X$X#X#X#X#X$X$X#X#X#X",
"$X#X#X#X#X#X#XXXP.$XOXOX}.0.+ g 3. .} B B B } } } B ..B _ ( _ B } } ( B B ( | ( ( B ( } } B P ( | } B B ( } } B %.| # w L.=X#X#X#X#X$X|.|.%X#X#X",
"*X#X*X$X#X#X#X#XI.}.{.OX#XXXr r b v N B M B N m P B B K m N B P m n P B P N n N B B M n M B P P n m B B B n N ( n h e W W.{.}.=X=X$X=X.XOX=X=X#X",
"#X#X#X#X#X#X#X$XT.i.OXOX.X$X#X!   7 J $.| X.x h O.o.X.D f | #.+.n s X.$.+.K d P $.+.K d L $.+.P s J *.X._ h D 5.< O OX,XY.I..XOX$X$X#X$X$X*X#X#X",
"*X$X#X$X#X=X$X=X|.h.{.u.OX$X#XQ   A _ D X.1._ G G P 2.] G D _ 1.X.G K K *.| G K K %.o.G K K %.O.H G K O.$.L K ` > O oX:Xh.h.u./.OX$X#X#X#X#X#X#X",
"#X#X#X*X#X#X$X=X`.`.|.{.+X$X#XR   ' @.s L M.$.{ h v n.,.@.h D n.,.@.z x 4.3.@.v f 2.2.@.D h <.4.>.L s O.n.,.L x > O XXoXx.x.].[.=X$X#X#X#X#X$X#X",
"$X#X#X#X#X#X#X#X%X%X%X=X#X#X#XR   | 5.[ K A O.4.` L x X.4.` L z | 4.+.L c P 5.+.L A _ V.+.L v K 3.O.) D D 2.$.@.3 $ $X$X>X%X=X=X#X*X$X*X#X#X#X#X",
"#X#X#X#X#X#X$X*X#X#X#X#X*X=X*XR   } 4.,.L h X.<.$.[ d P 2.,.[ d P 2.,.{ h K 2.$.+.V I 6.$.+.j v 1.*.@.D x &.<.,.< $ *X#X*X#X#X#X#X$X*X$X#X#X#X#X",
"#X#X#X#X$X*X#X#X#X#X#X#X#X*X=XR   7 K M.1.[ A z 4.4.{ D h 1.3.{ D f *.n.{ G d o.N.;.I s | m.@.) d P N.@.' k L G.i @ *X#X*X*X#X#X#X#X#X#X#X$X*X#X",
"#X#X#X*X#X#X#X&X&X#X#X#X$X#X=XR   h _ | O.,.K D } O.,._ A } O.1._ A }  .,.` A ..:.2.` A P  .$.o.A P  .$.@.D K 1.5 $ #X#X#X%X#X#X$X#X#X#X#X#X#X#X",
"#X#XXXXX#X#X#X$X$X#X#X$X#X*X$XR   ' +.s K m.,.[ d v M.,.{ h A M.,.{ j z b.3.@.F h <.4.@.S d 2.4.@.K 6 O.n.>.L j > @ #X#X%X&X$X*X*X#X#X#X#X$X$X#X",
"$X*XOX*X.X#X#X#XOX$X$X#X#X#X#XQ . _ 4.) K D O.2.' L D X.4.` L D X.4.` L D ..V.[ K D _ 4.+.G v P 4.+.L K K 1.$.[ 3 O XX$X$X$X$X$X#X*X}.$X*X&X%X*X",
"*X$X#X#X#X#X#X#X#X#X#X#X#X#X=XR   } V.>.L s  .n.,.] s P b.,.) s P n.,.` f I V.$.{ h m 3.,.@.h v 3.<.@.A z *.1.6.3 O XX$X*X*X$X*X*X*XOX*X$X#X#X#X",
"#X#X#X#X$X#X#X#X#X#X#X#X$X*X-XT   s P n.$.' A x 4.1.[ D z 1.4.[ G h *.b.X.G f O.n.{ L f | n.{ L f P N.+.) h B D.i + XX*X#X#X$XXXOX#X$XOX#X#X#X#X",
"#X#X#X#X#X#X#X#X$X#X#X#X#X=X%XR   h _ | O.,.L A X.#.1.) A _ +.<._ V } o.,.` A P O.,.` A P O.,.X.A L O.$.@.S K 2.3 @ XX$X#X$X$X$X$X$X$XXXXX*X#X#X",
"#X#X#X#X#X#X$X#X#X#X#X#X#X#X#XR   ) @.7 P A.,.[ s v N.3.{ d v N.,.{ h j n.4.@.A d 4.4.@.A d 2.n.@.G 6 %.m.@.L h % $ XX$X=X#X#X#X$X#X#X$X$X#X#X#X",
"#X#X#X#X#X#X#X#X#X#X#X#X#X#X#XT   } 4.G L K O.*.L L K | 1.) L K o.1.) L K } <.] K K ` 2.` L K } 1.X.G L P <.o.{ <   XX-X}.#X#X#X$X$X#X#X#X#X#X#X",
"#X#X#X#X$X=X{.*X*X%X#X#X#X#X#XT   O.C.>.K 7 #.n.,.' p P m.,.' 7 P M.,.[ s K M.,.{ d D n.,.{ d x n.1.@.A f <.B.7.6 . L.=XP.I.$X#X.XOX$X#X#X*X$X#X",
"#X#X#X#X#X*XE.E.*X*X*X#X#X#X*X[.q.% i A.3.@.P L 5.5.>.` K 4.7.@.X.K 4.n.@.` K 1.m.>.X.J $.A.,.{ J O.A.,.{ X.F % l 9. X+XU.t..XoXOX$X#X#X#X$X#X#X",
"#X#XOX$X$X$XI.y..X|.oX#X#X#X#X$X$XC 2  .` L d p B _ ) j 6 N ` L j 4 m | ) c 3 m | ) c 3 v  .L b 3 x  .L G F e , E :X+X=X}.r.|. X#X#X#X#X#X#X#X#X",
"#X#X#X#XXX$XI.g.:XoX#X$X#X#X#X#X#X#XJ.                                                                  = = e s.j..X%X=X}.y. X#X#X#X#X#X#X#X#X#X",
"#X#X$X*X$X$X=X=X=X$X#X#X#X#X#X$X=X#X#X#X#X X`.c.}.i.#X$X#X#X#X#X*X*X#X#X#X#X#X#X#X#X#X#XXX#X#X#X$X#X=X=XOX$X$X%X=X%X*X#X=X$X#X#X#X#X*X&XE.XX$X#X",
"#X#X#X#X#X#X=X=X$X#X#X=X=X#X#X=X=X$X#X#X#X%X:Xl.XXP.#X#X#X#X#X#X*X$X#X#X#X#X#X#X#X#X&X&X&X#X#X#X#X#X$X$X=X$X$X$X=X=X*X=X$X#X$X#X#X#X*X%X%X#X$X#X",
"#X#X=X$X*X$X#X#X#X#X*X}.}.=X$X$XI.#X#X#X#X#X%X%X#X=X$X*X#X#X*X#X$X#X#X#X#X#X#X#X*X$X&X%X&X$X*X#X#X#X#X$X#X$X#X#X#X#X#X#X#X#X#X#X#X#X#X#X*X#X#X#X",
"#X$XOXXX$X#X#X#X#X=X*X}.i.#X=Xl.y.XXOX#X$X#X$X#X#X#X#X$X#X#X$X=X=X*X$X#X#X#X#X#X#X#XXXXX#X=X$X*X#X#X#X#X#X#X#X#X#X#X#X#X#X$X$X#X#X#X#X#X#X#X#X#X",
"#X#XXX.X$X*X*X$X#X#X*X*XwXU.}.c.|..XOX$X#X#X#X#X#X#X#X#X#X#X$X*X{.XX=X#X#X#X#X#X#X#X#X#X#X#X*X$X#X#X#X#X#X#X#X#X#X#X#X#X$X|. X}.*X#X*X%X#X#X*X#X",
"#X$X$X$X$X#X#X#X#X#X*X#X@Xw.|.|..XOX%X#X#X#X#X#X#X#X#X$X=XP.}.P.}.#X$X#X#X#X#X#X#X#X#X*X=XP.{.=X=X#X#X=X#X#X#X$X#X$X$XXX.X.XOX#X#X#X*X#X#X#X#X#X",
"#X$X#X#X$X$X#X#X#X#X#X&X].p.l.j.:X=X$X$X#X#X#X*X%X&X#X$X#X#Xg.].&X*X*X*X*X$X#X#X$X*X*X#X%X*Xi.#X=X%X=X*X*X*X=X*X#X#X#X#XXX$X%X=X#X#X#X#X#X#X#X#X",
"#X#X*X$X#X*X#X#X#X#X#X&X:Xx.j. X#X=X=X$X$X*X#X$X$X#X#X#X#X$X{.}.=X*X$X$X#X#X#X$X*X@X=X=X*X=XeX>X}.}.=X{.P.&XOX X#X$X#X#X$X#X#X#X#X#X#X#X#X#X$X*X",
"#X#X#X#X#X#X#X*X#X#X#X#X#X&X#X#X$X*X$X*X#X#X%X}.*X%X*X#X#X#X=X$X*X#X&X&X*X#X#X=XXXi.*X}.}.-X>XY.r.I.<X{.t.#XOX*X$X#X#X#X#X#X#X#X=X*X$X%X%X#X#X#X",
"#X#X$X*X$X#X#X$X#X#X#X#X#X#X#X#X*X$X*X$X#X$X*X}. X X$X$X#X#X$X*X#X$X$X#X#X#X#X*X=XI.U..Xc.P.z.f.{.:X+XY.w.k.+X=X$X*X#X#X#X#X$XXX}.%XOXOX$X*X$X#X",
"#X#X$X%X=X*X#X#X#X#X#X#X#X#X#X#X*X$X#X$X*X#X$X#XOX X#X$X#X#X#X#X#X#X#X#X#X#X#X#X=X}.g.oXXXf.a.z.`.`.OXY.p.x.'.OX%X*X*X$X#X$X=X=XP.I.OX.XOX$X#X#X",
"#X$X#X}.*X#X#X#X$X*X#X#X#X#X#X#X$X*X*X$X$X#X#X#X$X$X#X#X#X#X#X#X#X#X#X#X#X#X#X#X$X.X|.#X=X.X].|.|.&X%X*X{..XOX*X$X#X$X*X#X#X#X=X.Xh.&XoX.X*X#X#X",
"#X#X<Xl.v.&X#X#X*X$X#X#X#X#X#X#X$X#X$X#X*X*X#X*X$X#X#X#X#X#X#X=X#X#X#X#X#X#X#X#X=X$X&X#X*X%X<X&X%X=X#X=X&X%X#X*X#X#X#X#X*X$X$X%X.Xz.l.oXOX#X#X#X",
"#X#X=XP.f.|.%X#X%X=X#X#X#X#X#X#X*X*X*X#X#X$X#X$X#X#X#X#X#X=X$X$X#X#X#X#X#X#X#X#X#X$X*X*X=X=X$X*X=X$X*X*X*X*X%X*X#X$X*X#X#X#X$X=X#Xg.z.OX#X#X#X#X"
};
