/* XPM */
static char *_35c3e1026df4415969dfae2ac251359c4ZBIItkFreakGYN[] = {
/* columns rows colors chars-per-pixel */
"72 72 222 2 ",
"   c #040000",
".  c #0D0000",
"X  c #0D0B03",
"o  c #150000",
"O  c #1B0000",
"+  c #160D04",
"@  c #1B0D03",
"#  c #230200",
"$  c #2A0500",
"%  c #240C03",
"&  c #2C0B02",
"*  c #2B0F0D",
"=  c #300700",
"-  c #320D01",
";  c #390D00",
":  c #261107",
">  c #2C1105",
",  c #2E1308",
"<  c #321206",
"1  c #3A1306",
"2  c #34150A",
"3  c #3A160A",
"4  c #36190D",
"5  c #3A1A0D",
"6  c #2A1A10",
"7  c #341414",
"8  c #341C11",
"9  c #3C1B12",
"0  c #3E2317",
"q  c #3C2D2C",
"w  c #4B0D02",
"e  c #441406",
"r  c #4C1507",
"t  c #531607",
"y  c #581707",
"u  c #541708",
"i  c #5C1808",
"p  c #451C16",
"a  c #671505",
"s  c #621909",
"d  c #6C1B09",
"f  c #751906",
"g  c #721C0A",
"h  c #7B1D0A",
"j  c #422514",
"k  c #432419",
"l  c #452A1B",
"z  c #5A2012",
"x  c #453219",
"c  c #49351B",
"v  c #4B391D",
"b  c #72200F",
"n  c #452B21",
"m  c #4A2A26",
"M  c #532828",
"N  c #493828",
"B  c #53372D",
"V  c #533332",
"C  c #573B36",
"Z  c #593E35",
"A  c #643539",
"S  c #564727",
"D  c #584D2A",
"F  c #54552D",
"G  c #5A512D",
"H  c #494438",
"J  c #4A483D",
"K  c #5A4037",
"L  c #5D443A",
"P  c #5F5831",
"I  c #62453C",
"U  c #61483F",
"Y  c #625D33",
"T  c #605E39",
"R  c #68683C",
"E  c #4B4C42",
"W  c #524F49",
"Q  c #624941",
"!  c #674D48",
"~  c #774548",
"^  c #685047",
"/  c #6C554D",
"(  c #725452",
")  c #735C54",
"_  c #5A6356",
"`  c #6C7845",
"'  c #69714C",
"]  c #636658",
"[  c #756159",
"{  c #7A655D",
"}  c #556A60",
"|  c #697C65",
" . c #737269",
".. c #841E0A",
"X. c #891E0A",
"o. c #971E08",
"O. c #8D200C",
"+. c #93210C",
"@. c #9B220C",
"#. c #85301E",
"$. c #A4240D",
"%. c #AC250D",
"&. c #B4260E",
"*. c #BB270F",
"=. c #BD280E",
"-. c #873C2D",
";. c #C5290F",
":. c #CA2A0F",
">. c #D22B0F",
",. c #D92C0F",
"<. c #C62910",
"1. c #CA2A10",
"2. c #D42B10",
"3. c #DB2D10",
"4. c #E22E11",
"5. c #E92F11",
"6. c #EC3012",
"7. c #875251",
"8. c #894E62",
"9. c #8D5466",
"0. c #95586D",
"q. c #945D71",
"w. c #9C5C74",
"e. c #816D66",
"r. c #85716B",
"t. c #866675",
"y. c #8A7873",
"u. c #927D78",
"i. c #79854C",
"p. c #7B8B53",
"a. c #6B9055",
"s. c #6BA351",
"d. c #78A558",
"f. c #5D876D",
"g. c #6A8F6C",
"h. c #758569",
"j. c #769769",
"k. c #7D9C6B",
"l. c #6A8471",
"z. c #6C8B74",
"x. c #738876",
"c. c #7A9779",
"v. c #7CA263",
"b. c #73A077",
"n. c #7EA27D",
"m. c #818D51",
"M. c #828F5A",
"N. c #849454",
"B. c #87995A",
"V. c #83AA5E",
"C. c #89A85E",
"Z. c #8BB25A",
"A. c #97B55C",
"S. c #A4BE5E",
"D. c #839B68",
"F. c #8B827C",
"G. c #93827D",
"H. c #9A8179",
"J. c #839976",
"K. c #86A464",
"L. c #86AA61",
"P. c #8BAC63",
"I. c #86A36B",
"U. c #8BA36C",
"Y. c #8FA96A",
"T. c #93A867",
"R. c #93AE65",
"E. c #93AC6A",
"W. c #8FB062",
"Q. c #97B267",
"!. c #98B366",
"~. c #9EB964",
"^. c #96B169",
"/. c #99B368",
"(. c #88A875",
"). c #82A47D",
"_. c #86AA7D",
"`. c #89AC7C",
"'. c #90A370",
"]. c #8EB078",
"[. c #91B173",
"{. c #A0B966",
"}. c #B46E8D",
"|. c #C4789C",
" X c #C97EA3",
".X c #718A84",
"XX c #759782",
"oX c #7FA184",
"OX c #978681",
"+X c #9A8985",
"@X c #9B8A85",
"#X c #A2918B",
"$X c #A69894",
"%X c #86AA81",
"&X c #AEA29D",
"*X c #B5A9A5",
"=X c #B6AFAB",
"-X c #D184AB",
";X c #C6BCB9",
":X c #C5BDBA",
">X c #C9C1BE",
",X c #EB95C6",
"<X c #EB96C6",
"1X c #F19ACD",
"2X c #F89ED3",
"3X c #FAA0D6",
"4X c #FEA5DD",
"5X c #FFABE5",
"6X c #FFB5F3",
"7X c #CDC6C4",
"8X c #D3CDCB",
"9X c #D7D1CF",
"0X c #DBD5D3",
"qX c #DDD8D6",
"wX c #E0DAD7",
"eX c #E2DDDC",
"rX c #E4E0DF",
"tX c #EAE7E6",
"yX c #F1EEED",
"uX c #F5F4F3",
"iX c #F8F7F7",
"pX c #FFFFFF",
/* pixels */
"Q.Q.!.E.[.V.P./.!.!.Q.Q.Q.Q.Q.Q./.!.^.!.Q.Q.Q.Q.^.Q.Q.Q.Q.Q.Q.Q.Q.Q.Q.Q.Q.!.Q.Q.!.Q.Q.Q.Q.Q.Q.Q.Q.Q.Q.Q.Q.Q.Q./.Q.Q.Q.Q.Q.Q.Q.Q.Q.Q.Q.Q.Q.Q.Q.Q.",
"Q.Q.!.E.J.j.V.!.!.Q.Q.Q.Q.^.' S G D D D G (.Q.Q.Q.Q.Q.Q./.Q.Q.Q.Q.Q.Q.Q.Q.`.] D D ] `.Q.Q.Q.Q.Q.^.k.S D G G D S k.Q.Q.!.!.Q.Q.Q.Q.Q.Q.!.Q.Q.^.!.",
"Q.Q.!.!.Y.J.v.Q./.Q.Q.Q.^.^.E $ & # O # # %X/.Q.Q.!.Q.Q./.Q.!.E.Q./.Q.^./.).O % % O oX!.Q.Q.Q.Q.^.| # # # # O O l.E.E.!.Q.Q.Q.Q.Q.Q.Q.Q.Q.Q.Q.Q.",
"Q.Q.!.!.!.!.!.Q.Q.^.!.Q.^.^.W $ B [ ) ) [ c.).).J._.^.Q.`.c.).).n.n.n.).n.h.a s s a h.j.p.c.%Xn.%Xx.) ) ) [ ) ( x.).`.!.^.Q.Q.Q.Q.Q.Q.Q.Q.Q.Q.Q.",
"Q.!.!.Q.Q.Q.Q.Q.Q.Q././.^.^.J o G.pXpXpXpXI o # # q ^.Q._ O # $ # - < & + i >.:.:.,.f % < & - - # $XpXpXpXpXpXpX@X# J /.^.Q.Q.Q.Q.Q.Q.Q.Q.Q.Q.Q.",
"Q.Q.Q.Q.Q.Q.^.!.Q.^./.^.[.].W 7 #XpXpXpXpX) 7 k p W _.]._ p k j p < - < < f >.>.:.,.f % < - - - # u.yXyXpXpXpXpX@X# H [.!.!.!.Q.Q.Q.Q.Q.Q.Q.Q.Q.",
"Q.Q.Q.Q.Q.Q.Q.Q.Q./.W.n.N N =XtXyXpXpXpXpXtXeXeXqX>XN q &XeXeXeX>Xl # O.=.=.:.:.:.>.g : < < < > * 0 n [ uXpXpXpX@X# J ^.Q.Q./.^.Q.Q.!.Q.Q.!.Q.Q.",
"Q.Q.Q.Q.Q.Q.Q.Q.^./.L.b.# ; qXpXpXpXpXpXpXpXpXpXpXrX& O ;XpXpXpXyXn O @.4.>.>.>.>.,.g % < > > , & $ o K iXpXpXpX#X# J [./.V.P.!.Q.!.Q.Q.^.Q.Q.Q.",
"Q.!.Q.Q.Q.Q.^.Q.Q.~.v.XX: 2 8XpXpXpXpXpXpXpXpXpXpXyX*X$XtXpXpXpXrXl O +.3.%.d d d g r : r O.+.O.+.i $ k  .e.e.r.K $ J [./.V.V.V.^.R.Q.Q.Q.Q.Q.!.",
"Q.^.Q.Q.Q.Q.!.Q.^.~.I.XX& 3 8XpXpXpXpXpXpXpXpXpXpXpXpXpXpXpXpXpXrXn # +.4.+.+ @ % : : @ y 2.3.2.4.b @ % $ # O O O # E Q.!.!.v.W.W.Y.Q.Q.Q.Q.Q.Q.",
"Q.Q.Q.Q.Q.Q.Q.Q.^.Q.Q._.& 2 8XpXpXpXpXpXpXpXpXpXpXpXpXpXpXpXpXpXrXn # +.3.$.s i 1 , r i ..<.:.:.2.+.s y < < u s s a I c.p.^.j.k.v.Y.!.^.Q.Q.Q.Q.",
"Q.Q.Q.Q.!.Q.Q.Q.Q.Q.Q._.& 1 qXpXpXpXpXpXpXpXpXpXpXpXpXpXpXpXpXpXrXn # +.3.1.2.=.r % X.3.:.:.:.1.1.1.>.%.* < $.3.1.3.&.; : ).I.I.k.Y.!.!.Q.Q.Q.Q.",
"Q.Q.Q.Q.Q.Q.Q.Q.Q.^.T._.& 2 ;XtXiXpXpXpXpXpXpXpXpXpXpXpXpXpXpXpXrXn # +.>.:.2.*.e % O.2.1.1.:.:.1.:.3.$.< < $.3.:.,.%.; * ).~.!.!.!.!.Q.Q.Q.Q.Q.",
"!.Q.Q.Q.Q.Q.Q.Q.!.R.P._.3 & l n $XpXpXpXpXpXpXpXpXpXpXpXpXpXpXpXtXl O o.3.:.2.*.e : O.3.:.1.:.:.;.1.3.$.& < $.3.:.>.%.1 , ).Q.!.Q.Q.!.Q.Q.Q.Q.Q.",
"Q.Q.Q.!.Q.R.E.!.^.Y.P._.4 - # . u.pXpXpXpXpXpXpXpXpXpXpXpXpXpXpXqX0 o X.3.2.3.;.e % +.3.2.;.:.1.:.1.3.%.< , %.3.>.2.%.; , ).Q.Q.Q.Q.Q.!.!.^.Q.Q.",
"Q.Q.Q.^.Q.Q.Q.!./.P.Y.%X< - G.$X8XpXpXpXpXpXpXpXpXpXpXpXpXpXpXpXuX*X$X7.a g g d 3 : u d X.1.1.:.:.@.d s < - s d @.3.%.; , _.Q.Q.Q.Q.Q.Q.Q.Q.Q.Q.",
"Q.Q.^.Y.^.!.Q.Q.!.I.D.`.O $ qXpXpXpXpXpXpXpXpXpXpXpXpXpXpXpXpXpXpXpXpX[   o o o O # % @ y 2.3.3.4.g X % < < % X d 4.&.; , %X^.Q.Q.Q.Q.Q.Q.Q.!.Q.",
"Q.Q.^.R.R.Q.Q.Q.!.c..XXX/ [ eXpXpXpXpXpXpXpXpXpXpXpXpXpXpXpXpXpXpXpXpX$X! ) ) ) ) ) m % u @.@.@.$.h s u < < u i +.3.%.; , D.Q.Q.Q.Q.Q.^.Q.Q.Q.Q.",
"Q.Q.Q.!.Q.Q.!.Q.!.l.O ^ pXpXpXpXpXpXpXpXpXpXpXpXpXpXpXpXpXpXpXpXpXpXpXpXpXpXpXpXpXpXe.o # % # > % O.4.$.: : $.,.:.3.&.1 , i.Q.Q.Q.Q.!.!.!.^.!.Q.",
"Q.Q.Q.Q.Q.Q.Q.Q./.| O ^ pXpXpXpXpXpXpXpXpXpXpXpXpXpXpXpXpXpXpXpXpXpXpXpXpXpXpXpXpXpXu.7 k k 0 , % ..5.$.1 e $.3.:.<.$.1 , i.Q.Q.!.!.!.~.!.Q.!.^.",
"Q.Q.Q.Q.Q.Q.Q.Q.Q.T # ^ pXpXpXpXpXpXpXpXpXpXpXpXpXpXpXpXpXpXpXpXpXpXpXpXpXpXpXpXpXpXtXqXqXqX8XB o O.3.<.&.&.:.2.O.1 e < 2 p./.!.Q.Q.Q.Q.^.Q.Q.Q.",
"Q.Q.Q.Q.Q.Q.^.!.Q.G O ^ iXpXpXpXpXpXpXpXpXpXpXpXpXpXpXpXpXpXpXpXpXpXpXpXpXpXpXpXpXpXpXpXpXpXpXB . h 3.2.3.3.2.3.h o # < < ` /.!.Q./.Q.Q.Q.Q.Q.Q.",
"Q.!.Q.Q.Q.Q.Q.^.L.| # ! pXpXpXpXpXpXpXpXpXpXpXpXpXpXpXpXpXpXpXpXpXpXpXpXpXpXpXpXpXpXpXpXpXpXiX=X#X7.d g g g g d 7.$XG.3 & L.V.R.!.!.Q.Q.Q.Q.Q.Q.",
"Q.Q.Q.Q.!.Q.Q.Q.P.z.O / pXpXpXpXpXpXpXpXpXpXpXpXpXpXpXpXpXpXpXpXpXpXpXpXpXpXpXpXpXpXpXpXpXpXpXpXpXy.  o o o o   F.pXrX5 $ n.k.E.U.Q.!.!.Q.Q.Q.Q.",
"Q.Q.Q.Q.Q.Q.R.m.k.} # Z ;X;XyXpXpXpXpXpXpXpXpXpXpXpXpXpXpXpXpXpXpXpXpXpXpXpXpXpXpXpXpXpXpXpXpXpXpX*X! / ( / / ! *XpX9X5 & f.h.M.U.Q.Q.Q.Q.Q.Q.Q.",
"Q.Q.Q.Q.Q.Q.C.j < < < - O & 8XpXpXpXpXpXpXpXpXpXpXpXpXpXpXpXpXpXpXpXpXpXpXpXpXpXpXpXpXpXpXpXpXpXpXpXpXpXpXpXpXpXpXpX9Xj $ < < G Q.!.Q.Q.Q.Q.Q.Q.",
"Q.Q.Q.Q.Q.Q.T.c 2 < < < < k 8XpXpXpXpXpXpXiXyXiXpXpXpXpXpXpXpXpXpXpXpXpXpXpXpXpXpXpXpXpXpXpXpXuXyXiXpXpXpXpXpXpXpXpX9X9 & 1 2 Y !.!.Q.Q.Q.Q.Q.Q.",
"Q.Q.!.Q.Q.!.R.B.N.D # I 0XwXiXpXpXpXpXpXpX{ q #XpXpXpXpXpXpXpXpXpXpXpXpXpXpXpXpXpXpXpXpXpXpXuX) m &XpXpXpXpXpXpXpXpX9X9 $ R N.K.Q.Q.Q.Q.Q.Q.Q.Q.",
"Q.Q.!.!.!.!.Q.Q.!.Y # / pXpXpXpXpXpXpXpXpXK   r.pXpXpXpXpXpXpXpXpXpXpXpXpXpXpXpXpXpXpXpXpXpXuXm   @XpXpXpXpXpXpXpXpXeX0 $ m.!.!.!.Q.Q.Q.Q.Q.Q.Q.",
"Q.Q.!.I.J.E.!.Q.Q.Y & m r.u.tXpXpXpXpXpXpX! o u.pXpXpXpXpXpXpXpXpXpXpXpXpXpXpXpXpXpXpXpXpXpXuXZ o #XpXpXpXpXpXpX;Xr.{ 4 > i.Q.Q.Q.Q.Q.Q.!.!.Q.Q.",
"Q.!.Q.P.I.E./.Q.Q.Y < &   O 7XpXpXpXpXpXiXK   r.pXpXpXpXpXpXpXpXpXpXpXpXpXpXpXpXpXpXpXpXpXpXuXm   OXpXpXpXpXpXpXu.  o & 3 m.Q.Q.Q.Q.Q.!.I.U.^.Q.",
"Q.Q./.P.Z.~.R.m.i.S & j ! ) qXpXpXpXpXpXpXu.W $XpXpXpXpXpXpXpXpXuX7X;X;X;X0XpXpXpXpXpXpXpXpXuXr.W =XpXpXpXpXpXpX=XQ L 3 < T i.N.Q.Q.Q.Q.U.Y.!.Q.",
"E./.~.V.a.P.P.j < < O ! pXpXpXpXpXpXpXpXpXpXpXpXpXpXpXpXpXpXpXpXeX9 O $ o ( pXpXpXpXpXpXpXpXpXpXpXpXpXpXpXpXpXpXpXpXqX4 $ < < G Q.Q.Q.^.Q.!.Q.Q.",
"!././.L.g.D.R.c 3 3 * / uXiXpXpXpXpXpXpXpXpXpXpXpXpXpXpXpXpXpXpXrXN * 3 % { pXpXpXpXpXpXpXpXpXpXpXpXpXpXpXpXpXpXpXiX8Xn , 4 4 P Q.Q.Q.Q.!.!.Q.Q.",
"!.!.Q.!.!.R.R.B.N.N.I.%XB Z 0XpXpXpXpXpXpXpXpXpXpXpXpXpXpXpXpXpXiXqX0X0X9XtXpXpXpXpXpXpXpXpXpXpXpXpXpXpXpXpXpXpX&Xm ] %XB.M.N.C.Q.Q.Q.Q.Q.Q.Q.Q.",
"!.^.Q.!.!.!.!.Q.^.^.Q.`.O $ 0XpXpXpXpXpXpXpXpXpXpXpXpXpXpXpXpXpXpXpXpXpXpXpXpXpXpXpXpXpXpXpXpXpXpXpXpXpXpXpXpXpX@Xo E ^.Q.!.Q.!.Q.Q.!.Q.Q.Q.Q.Q.",
"Q.!.^.Q.Q.Q.!.Q.!.Q.Q.D.< 2 { y.;XpXpXpXpXpXpXpXpXpXpXpXpXpXpXpXpXpXpXpXpXpXpXpXpXpXpXpXpXpXpXpXpXpXpXpXpXpX$Xr.U $ H R.!.!.!.!.Q.Q.Q.Q.Q.Q.Q.Q.",
"Q.Q.Q.Q.Q.Q.^.Q.^./.!.p.< 1 # o H.pXpXpXpXpXpXpXpXpXpXpXpXpXpXpXpXpXpXpXpXpXpXpXpXpXpXpXpXpXpXpXpXpXpXpXpXpXB . & < 0 !.E.!.!.^.Q.Q.Q.!.!.Q.Q.Q.",
"Q.Q.!.Q.Q.Q.Q.R.V.B.i.` N v v J OX:X>X;X>XyXpXpXpXpXpXpXpXpXpXpXpXpXpXpXpXpXpXpXpXpXpXpXpXpXpXpXpXeX;X>X;X;X .H v v D ` i.T.Q.!.Q.Q.!.U.U.!.Q.Q.",
"Q.Q.Q.Q.Q.Q.Q.Q.Z.G - c R.!.E.Q..X$ - & 3 8XpXpXpXpXpXpXpXpXpXpXpXpXpXpXpXpXpXpXpXpXpXpXpXpXpXpXpXOX# < $ 7 _.Q.!.!.m.< > ` P./.Q.Q.Q.Y.Y.Q.!.!.",
"Q.Q.Q.Q.Q.Q.Q.!.!.F < N R.!.Q.!.b.& , # > ;XuXuXuXuXuXuXuXuXiXuXuXuXuXuXuXuXuXiXuXuXuXuXuXuXuXuXiXy.O $ < 8 `.Q.Q.!.M.5 2 R Q.^.!.!.Q.!.!.^.Q.Q.",
"Q.Q.Q.Q.Q.Q.!./.U.a.p.a./.!.Q.Q.Y.D.n.6 - N Z Z Z Z Z Z Z Z Z Z Z Z Z Z Z Z Z Z Z Z Z Z Z K Z K Z k $ E (.B.^.Q.Q.!.U.p.a.j.v.I.E.!.!.Q.Q.Q.Q.Q.",
"Q.^.Q.!.Q./.!.E.(.k.L.K.T.Q.Q.Q.^.Q.[.0 $ O o O # # O O O o O # # O O o o O # # O O O O O # # O o # # _ U.Q.!.!.Q.Q.!.E.k.c.v.P.^.!.Q.^.Q.Q.Q.Q.",
"Q.!.Q.Q.Q.!.!.!.!.!./.!.!./.Q.Q.D._  .q.w.w.w.A % e h ..X.O.s & 9 9.w.0.w.~ & ; h X.....d & 2 8.w.0.0.t.| ' [.!.Q.Q.!.!./.~.!.!.!.Q.Q.!.Q.Q.Q.Q.",
"Q.Q.Q.Q.Q.Q.Q.Q.Q.Q.Q.Q.Q./.Q./.x.o p ,X4X2X5Xw.@ r >.5.,.4.@.@ m 1X6X5X6X}.% 1 =.3.3.6.&.% 7 -X5X2X5X|.# O `.!.Q.!.Q.Q./.!.^.!.Q.Q.Q.Q.Q.Q.Q.Q.",
"Q.Q.Q.Q.Q.Q.Q.Q.Q.Q.Q.Q.Q.^.(._. .M 7.,X1X,X3Xw.% e @.%.;.,.X.% 9 }. X}. X0.% e &.2.&.%.O.& 3  X3X1X2X XA A XXD.B.Q.Q.Q.R./.Q.Q.Q.Q.Q.Q.Q.Q.Q.Q.",
"Q.Q.Q.Q.Q.Q.Q.~.~.Q.Q.Q.Q.R.N % q.5X,X1X1X1X5Xw.& > % $ o.6.O.% & , , > , , % 3 *.4.f O % $ 9 -X4X,X,X,X2X,XA % R Q.Q.Q.!.!.Q.Q.Q.Q.Q.Q.Q.Q.Q.Q.",
"Q.Q.E.R.Q.Q.Q.Q.!.Q.Q.Q.^.^.H O 8.2X,X,X,X,X,X0.$ > 4 8 @.,.+.2 < - - - - < < e %.2.b 6 4 % 5 |.1X,X1X,X,X,XM # l.Q.Q.Q.!.{.!.R.Q.Q.Q.Q.Q.!.Q.Q.",
"!.^.^.^.Y.Q.Q.Q.Q.Q.Q.Q.Q.^.W $ p M ~ ,X1X~ M k # N 7X8X~ ; f %.%.%.%.$.$.%.%.$.y w H.8X#X< & M M }.3X XV M 3 $ x.^.Q.Q.!.!.!.!.!.^.Y.Q.Q.~.!.Q.",
"Q.Q.!.^.Q.Q.Q.Q.Q.Q.Q.Q.Q.^.J # #   k 2X4XA o % O C pXpX[   s 3.3.2.2.2.3.2.3.;.<   *XpX8X: # % o 0.6X}.O o # # l.Q.Q.Q.Q.R.Q.Q.^.^.W.Q.Q.Q.Q.Q.",
"Q.Q.Q.Q.!.^.Q.Q.Q.Q.Q.].l.l.OXOX@X@XH.9.8.m # u ..#.y.G.-.h @.1.1.<.:.:.1.:.1.;.X.h 7.F.e.X.h e % A 9.q.@X@X@X@Xx.l.j.R.Q.Q.!.Q.E.Q.Q.W.Q.Q.Q.Q.",
"Q.Q.Q.Q.Q.Q.Q.Q.Q.Q.Q.%X$ & qXpXpXpXqX> O % @ g 5.&.# . o.4.2.1.<.:.:.;.:.:.1.:.>.4.a   w 3.2.e @ % . L pXpXpXpX#X# p T.Q.Q.Q.Q.Q.Q.Q.^.R.Q.Q.Q.",
"Q.Q.Q.Q.Q.!.!.Q.Q.Q.^.D.$ 3 8XpXpXpX8X4 % r u O.,.*.i t $.2.1.:.:.1.:.1.1.:.:.:.:.>.X.e h 1.1.d u e O Q iXpXiXpX@X# x C.!.Q.Q.Q.Q.Q.Q.!.!.Q.Q.Q.",
"Q.Q.Q.Q.Q.Q.Q.^.Q.Q.^.p.$ 5 8XpXpXpX8X4 $ $.2.1.:.<.:.:.:.<.1.:.:.:.<.:.:.;.;.:.:.:.:.:.:.:.:.<.:.b o U uXpXiXpX@X$ x R.P.R.!.Q.!.!.Q.Q.Q.Q.Q.Q.",
"Q.Q.Q.Q.!.Q.V.W./.!.Q.(.& 3 8XpXpXpX8X7 & $.3.:.:.:.:.:.:.:.:.:.:.:.:.<.1.:.:.:.:.:.:.:.:.1.1.:.,.h o U uXpXiXpX@X$ 0 !.Z.C./.Q.Y.Q.!.Q.Q.Q.Q.Q.",
"Q.Q.^.!.R.Q.S.A.^.Q.^.%X& 1 8XpXpXpX8X4 $ $.2.1.:.:.:.:.<.1.<.:.:.:.:.:.:.:.:.:.:.:.:.:.:.:.1.:.,.h O Q uXpXpXpX@X# l Y.W.d.P.E.Y.!.Q.Q.Q.Q.Q.Q.",
"Q.^.^.Q.!./.Z.d.Y.U.E._.# ; 0XpXpXpXqX4 $ $.2.:.;.:.:.:.:.:.:.:.:.:.:.:.1.1.:.1.;.:.:.;.:.:.1.:.:.h O Q pXpXpXpX@X# l R.Z.s.D.'.Q.!.Q.Q.Q.Q.Q.Q.",
"Q.^.!.Q.!.!.V.j.J.E.Q.].z.x.F.u.OXOXe.2 & $.2.:.:.:.:.:.;.<.1.:.1.1.:.:.:.1.1.1.1.:.:.:.:.:.1.1.2.h % m G.OXG.u..X| R !.P.d.K.^.Q.Q.Q.Q.Q.Q.Q.Q.",
"Q.Q.Q.Q.Q.Q././.!.!.!.Q.!.^.N O # $ # > 2 $.4.>.:.;.:.:.:.1.1.:.1.1.:.:.2.2.1.;.1.:.:.:.:.;.:.2.4.h : - # # $ # x.!.Q.Q.^././.!.Q.Q.Q.~.~.Q.Q.Q.",
"Q.Q.Q.Q.Q.Q.Q./.!.Q.Q.!./.[.| N c c x < < O.&.&.:.:.:.:.:.:.:.:.1.:.:.&.$.&.1.:.:.:.:.1.1.:.1.%.$.d : 4 c c c l c.^.Q.Q.!./.!.Q.Q.Q.Q.Q.!.Q.Q.Q.",
"Q.Q.Q.Q.Q.Q.Q.Q.Q.Q./.L.P././.Q.K.R.p.2 < & # f 3.>.:.>.1.>.>.1.:.:.,.g @ d 2.2.:.:.>.>.>.2.:.w % & < v R.R.R.R.Q.Q.^.Q.Q.Q.Q.Q.Q.Q.Q.Q.Q.Q.Q.Q.",
"Q.Q.^.^.Q.Q.Q.Q.Q.Q.Q.W.d.!./.v.d.R.M.2 < 4 : g :.;.;.;.<.<.<.;.:.:.:.s + i 1.;.<.;.;.;.:.:.=.r : 3 < v !.!.!.Q.Q.Q.Q.Q.Q.!.!.Q.Q.Q.Q.Q.Q.Q.Q.Q.",
"Q.Q.P.R./.Q.Q.Q.Q.Q.Q.^.S.Z.Y.v.L.T.p.< 2 $X8Xu.w t t t u u u t t t t 1 > 1 u t u t t t t w z *X8X{ # v R.!.Q.Q.Q.Q.Q.Q./.U.I.R.Q.Q.Q.Q.Q.Q.Q.Q.",
"Q.Q.Q.Q.Q.Q.Q.Q.Q.Q.!.!.Z.j.I.v.Y.T.N.> < 8XpX#X. o O O O O O o O O O $ 2 & o O O O O O O   % qXpXOX# v R.Q.Q.!.Q.Q./.T.P.Y.P.Q.Q.Q.Q.Q.Q.Q.Q.Q.",
"Q.Q.Q.Q.Q.Q.Q.Q.Q.Q.Q./.L.f.k.c.D.!.m.< 3 ;XpX7XG.OXOXG.OXG.OXOXG.@X@XZ % B @XOXG.G.OXOXG.u.@XtXpXG.# v R.!.!.Q.!./.Q.R.R.!.!.Q.Q.Q.!.Q.Q.Q.Q.Q.",
"Q.Q.Q.Q.Q.Q.Q.Q.Q.Q.Q.~.[.j.j.I./.!.D.< 2 >XpXpXpXpXpXpXpXpXpXpXpXpXpX{ o { pXpXpXpXpXpXpXpXpXpXpXF.# x V./.E.Y.R.Q.Q.Q.!./.Q.Q.Q.Q.!.!.Q.Q.Q.Q.",
"Q.Q.Q.Q.Q.Q.Q.Q.Q.Q.Q.Q.^.!.!.!.!.Q.`.< - >XpXpXiXiXpXiXpXiXiXpXiXpXpX{ o [ pXpXpXiXiXpXiXpXuXpXpXG.# x d.!.T.E.!.Q.Q.Q.Q.Q.Q.Q./.!.!.!.Q.Q.Q.Q.",
"Q.Q.Q.Q.Q.!.^.Q.Q.Q.Q.Q.Q.!.!./.Q.Q.`.& = 7XpXpXpXpXpXpXpXpXpXpXpXpXpX{   ) pXpXpXpXpXpXpXpXpXpXpXu.# x a.k.E.!.!.Q.!.Q.Q.Q./.^.L.!.E.E.!.^.!.Q.",
"Q.Q.!.!./.Q.Q.Q.Q.Q.Q.Q.Q.Q.Q.Q.Q.Q.`.8 2 ;XiXiXuXiXuXiXuXiXuXuXuXiXiX{ + [ pXiXuXuXiXuXuXuXuXiXiXu.% c f.c.I.T.!.Q.Q.Q.Q.Q./.!.L.Z.E.Y.R.!.!.!.",
"Q.Q.Q.P.W./.Q.Q.Q.Q.Q.Q.Q.Q.Q.Q.Q.Q.^.`.). .I U Q I Q Q Q L L Q Q I I XX%Xc.L I L Q Q I I Q W Q I XXI.N.L.Y.E.!.!.Q.Q.Q.Q.Q.Q./.Y.j.~.E.U.!.Q.!.",
"Q.Q.~.k.k.~.Q.Q.Q.Q./.Q.Q.Q.Q.Q.Q.Q.Q.Q.^.J O O # # # # # # O # # # # n.^.n.O # # O # # # # # # O XXQ.^.~.!.!.!.Q.^.Q.Q.Q.Q./.!.E.g.k.U.Y.!.Q.Q.",
"Q.Q.~.L.g.I.~.Q.Q.Q.Q.Q.Q.Q.Q.Q.Q.Q.Q.Q.Q.c.' P Y Y P R P ' z.| Y Y Y (./.`.| Y P R T Y P R P Y Y (.Q.Q./.Q.Q.Q.Q.!.Q.Q.Q.Q.R./.W.j.z.E.!.Q.Q.Q."
};
