/* XPM */
static char *b5a2b674064143f9c4507744d1a97f5eIbwaFre0w1wweiwN[] = {
/* columns rows colors chars-per-pixel */
"72 72 147 2 ",
"   c #3A5427",
".  c #3B5628",
"X  c #3E5A2A",
"o  c #415D2C",
"O  c #44622E",
"+  c #466430",
"@  c #486631",
"#  c #476831",
"$  c #4C6A34",
"%  c #506E37",
"&  c #516E38",
"*  c #4E7236",
"=  c #507437",
"-  c #537539",
";  c #59763C",
":  c #547A3A",
">  c #5B7C3E",
",  c #5E7C41",
"<  c #607D44",
"1  c #577F71",
"2  c #57803D",
"3  c #5A833E",
"4  c #5E8541",
"5  c #5E8A41",
"6  c #648344",
"7  c #688547",
"8  c #628D43",
"9  c #688F47",
"0  c #678348",
"q  c #6B8749",
"w  c #6B8B4B",
"e  c #728E4E",
"r  c #659446",
"t  c #689647",
"y  c #679847",
"u  c #689847",
"i  c #679748",
"p  c #699648",
"a  c #679848",
"s  c #6A9A49",
"d  c #74904F",
"f  c #6B8A51",
"g  c #708A51",
"h  c #6B9B5D",
"j  c #769251",
"k  c #7A9653",
"l  c #7D9A55",
"z  c #7D9E59",
"x  c #6EA14C",
"c  c #71A44E",
"v  c #73A84F",
"b  c #6DA354",
"n  c #76A550",
"m  c #78A453",
"M  c #76AD52",
"N  c #79AD53",
"B  c #75A459",
"V  c #7AA55B",
"C  c #7DA85B",
"Z  c #77B053",
"A  c #7CB555",
"S  c #7EB857",
"D  c #7FBA58",
"F  c #5E8E64",
"G  c #5D896A",
"H  c #5D8470",
"J  c #699465",
"K  c #6C9A62",
"L  c #6A926B",
"P  c #749B65",
"I  c #73956D",
"U  c #78966F",
"Y  c #76996C",
"T  c #7D9D6C",
"R  c #668972",
"E  c #698C71",
"W  c #779374",
"Q  c #7EA462",
"!  c #809D57",
"~  c #839E59",
"^  c #86AD51",
"/  c #85A35C",
"(  c #8AA55E",
")  c #83AB5D",
"_  c #8CAD5D",
"`  c #90AB5B",
"'  c #8BB057",
"]  c #80BB57",
"[  c #8DB15D",
"{  c #81BC59",
"}  c #91B55C",
"|  c #9BBA5C",
" . c #A4BE5E",
".. c #809F68",
"X. c #869A77",
"o. c #899D73",
"O. c #82957C",
"+. c #82A464",
"@. c #85AA61",
"#. c #8DAC63",
"$. c #85A26B",
"%. c #8BA46C",
"&. c #8EAA6A",
"*. c #92AE65",
"=. c #92A76D",
"-. c #91AD68",
";. c #93AC6A",
":. c #94AF68",
">. c #96AE6D",
",. c #98AC6C",
"<. c #8FB160",
"1. c #8EB062",
"2. c #91B161",
"3. c #94B163",
"4. c #94B265",
"5. c #97B365",
"6. c #94B067",
"7. c #97B267",
"8. c #98B266",
"9. c #98B366",
"0. c #99B464",
"q. c #9DB766",
"w. c #9EB962",
"e. c #9EB865",
"r. c #97B069",
"t. c #97B268",
"y. c #98B268",
"u. c #9AB369",
"i. c #9BB36A",
"p. c #9DB369",
"a. c #9DB36A",
"s. c #9CB469",
"d. c #8BA072",
"f. c #A5BE62",
"g. c #A1B769",
"h. c #A1B86A",
"j. c #83C15B",
"k. c #84C15B",
"l. c #85C25B",
"z. c #84C15C",
"x. c #87C55C",
"c. c #89C75D",
"v. c #88C85E",
"b. c #8ACA5E",
"n. c #B6CF5A",
"m. c #8BCC61",
"M. c #8CCC60",
/* pixels */
"7.7.9.:.>.C #.p.7.y.7.7.7.7.7.7.7.7.7.7.7.7.7.7.7.7.7.7.7.7.7.7.7.7.7.7.7.7.7.7.7.7.7.7.7.7.7.7.7.7.7.7.7.7.7.7.7.7.7.7.7.7.7.7.7.7.7.7.7.7.7.7.",
"7.7.7.;.O.Y ) 0.y.t.7.7.7.7.7.7.7.7.7.7.7.7.7.7.7.7.7.7.7.7.7.7.7.7.7.7.7.7.7.7.7.7.7.7.7.7.7.7.7.7.7.7.7.7.7.7.7.7.7.t.7.7.7.7.7.7.7.7.7.7.7.7.",
"7.7.7.0.&.X.+.2.y.7.7.7.7.7.7.7.7.7.7.7.7.7.7.7.7.7.7.7.7.7.7.7.7.7.7.7.t.0.7.7.7.7.7.7.7.7.7.7.7.7.7.7.t.t.7.7.7.7.6.t.7.7.7.7.7.7.7.7.7.7.7.7.",
"7.7.7.7.7.0.y.y.9.t.7.7.7.7.7.7.7.7.7.7.7.7.7.7.7.9.7.7.7.7.7.7.7.7.7.t.*.&.0.7.7.7.7.7.7.7.7.9.7.7.7.7.5.7.7.7.t.7.w.5.:.7.7.7.7.7.7.7.7.7.7.7.",
"7.7.7.7.7.7.0.t.7.7.7.7.7.7.7.7.7.7.7.7.7.7.7.7.9.:.6.7.7.7.7.7.7.7.y.s.C ) ,.t.y.7.7.7.7.7.7.7.7.7.7.5.t.*.7.7.t.9.w.0.7.t.t.7.7.7.7.7.7.7.7.7.",
"7.7.7.7.7.7.7.7.7.7.y.t.7.7.7.7.7.7.7.7.7.7.7.7.9.:.;.6.*.7.7.7.7.7.7.u.@.) w & ; ; $ q ;.7.7.&.:.9.5.;.;.t.7.7.7.7.:.t.7.0.7.7.7.7.7.7.7.7.7.7.",
"7.7.7.7.7.7.7.7.7.y.<._ y.t.7.7.7.7.7.7.7.7.7.7.9.*.&.*.t.7.7.7.7.7.7.y.) f $ + $ $ @ O w 7.&.7.7.9.0.;.*.t.7.7.7.7.7.7.7.t.0.,.7.7.7.7.7.7.7.7.",
"7.7.7.7.7.7.7.7.t.u.@.) e.;.;.7.7.7.7.7.7.7.7.7.7.:.t.7.7.t.7.7.7.7.7.t.*.0 O 0 n N 9 X , *.t.9.7.9.7.*.t.7.7.7.7.7.7.7.y.) #.9.7.9.7.7.7.7.7.7.",
"7.7.7.7.7.7.7.7.t.e.Q W @.+.y.y.7.7.7.7.7.( d d d e ~ s./ d d d d d d d e ; O r { b.p . ; j d d d d d d d d d d j *.:.9.9.) ) _ 7.*.7.7.7.7.7.7.",
"7.7.7.7.7.7.7.7.t.e.%.T T T y.0.7.7.7.7.( ; X   . X $ j $ X . . . . . . . . O 8 { { p + . . . . . . . . . . . X o 6 #.7.9.,.V #.5.;.9.7.7.7.7.7.",
"7.7.7.7.7.7.7.7.7.7.7.9.t.9.y.y.:.9.0.,.q o ; 9 8 > o O X > 8 6 5 4 5 8 8 6 8 c { A n 6 4 5 8 8 5 4 8 6 5 4 6 4 # o l 7.7.0.W Y P &.9.7.7.7.7.7.",
"7.7.7.7.7.7.7.7.7.7.0.t.9.9.:.#.( ( #.@.e @ 9 k.b.c @ o O x M.k.z.z.k.{ k.k.{ D A A { { k.k.{ k.j.z.k.k.k.z.x.] 6 O l ( *.7.%.$.T =.9.7.7.7.7.7.",
"7.7.7.7.7.7.7.7.7.7.*.9.9.:.! & $ $ $ $ $ X 5 b.b.c . o . u m.{ { D { D { { D D ] { D { { { ] ] { D D { S A S N > X % @ 6 *.0.0.p.9.9.y.7.7.7.7.",
"7.7.7.7.7.7.7.7.9.*.&.9.:.~ % o $ $ $ $ $ - 8 S S s & ; & u { Z A Z Z N A Z A Z A N A Z Z A Z Z A A Z A A A D A 6 % % @ O e 7.9.9.9.y.9.7.7.7.7.",
"7.7.7.7.7.*.:.9.t.&.:.9.9.l o - 9 8 9 9 9 p 4 * = , 9 r 8 r r r r r 8 r r r r r r r r r r r r r r r r 8 u A ] ] u 8 t 6 o < 7.7.p.:.t.9.7.7.7.7.",
"7.7.7.7.7.7.7.7.q < < 6 6 , o > i s i i i s 3 $ * : u u r r 8 8 8 r 8 r r 8 8 8 8 8 8 5 8 8 8 8 8 8 r 5 r A { ] s 8 s 4 o % q 6 6 6 6 / 7.7.7.7.",
"7.7.7.&.*.7.*.6 + o o o o o X ; r r r r r r 3 : : 2 r y r r r r r y r y y y y y r r r r r y r r r r r 8 y S j.D s 8 s 2 o X X O o o o ; ~ 9.7.7.",
"7.7.7.*.;.7.( O # 6 4 4 4 4 6 8 r r r r r r 3 : : 2 r u r r r t r 3 3 2 3 3 2 8 r r r r r r r r r r r r r s x x r r r r 8 6 5 3 4 5 - O e 9.7.7.",
"7.7.7.7.y.9.( o $ s i r i i i i r r r r r y 3 : : 2 y y r r r u 3 = : : : = : 4 y r r r r r r r r r r r r r 8 5 r r r r r t t r u t > O d 9.9.7.",
"7.7.7.7.7.9.( + $ p r i r u u i r r r r r y 3 : = 2 a s y u r s 8 : : : : * = 5 y r r r r r r r r r r r r r r r r 5 r 5 r 8 8 r 8 r > @ d 9.7.7.",
"9.:.9.:.7.7.( @ $ t r r r 3 5 8 r r r r y u 4 : : 2 5 5 5 5 5 5 3 : : : 3 3 2 5 y r r r r r r r r r r r r r r r s x s x s s x s s s , @ d 7.9.9.",
"9.*.*.#.*.*.( $ $ t u i 2 = = 2 r r r r r r 3 = : : : : : : : : : : : 2 r y y r r r r r r r r r r r r r r r r 5 Z { S S S S S ] ] ] 6 O d *.:.,.",
"( 6 ; ; ; ; ; + $ i y y 3 : = 3 a a y r r y 4 : 2 : : : : : : : : : : : 8 r 8 r r r r r r r r y r r r r r r 8 r Z j.S S A A S A A ] 4 o ; & 7 #.",
"> o @ $ @ $ @ @ = r y y 2 : : 2 y y r r r a 3 : : 2 : 2 : : : : : : : : 8 r r r r r r r r r r r r r r r r r r 8 M { A A A A A A A ] 4 % $ @ o ; ",
"o o p m v s w 9 8 r r t 3 : : : : : 2 r r a 3 = : 2 : : : 5 r r r r r r M A A x 8 r r r r r 3 : : 3 y r r r r r u t r x S S A A A A N n n i o o ",
"+ o N { j.n r r r r t r 3 = : : : = * r a r 5 : : : : : : r s a y r r u ] k.z.x 8 r r r y y : * * 3 s u r r r r 8 8 3 y { D S S A A D D { N o + ",
"@ o c ] D x 3 r 8 r u y 2 * = : : : : r y a 3 = 2 : : * = 5 i r r r 8 r S j.{ x 3 r r r r r 2 : : 3 s u r r r r r r 8 x c.z.] A A A A A A c o + ",
"% o s ] S M x c c r r r r 3 3 3 : : : r y s 3 : : 2 3 5 4 r r r r r r r x c v s r r 8 r y r 2 : : 3 8 3 3 r r r r r r r u r u Z D A A A ] c o $ ",
"@ o c S A S { k.A r 8 r r u s r : = : 8 r y 3 : = 2 u s u r r r r r r r 5 5 8 r r r r r y r 3 = 2 : = = : r r r r r u 5 $ + * Z { A A A ] n o $ ",
"$ o c S A A S D Z r 8 r r r u 8 : : : r s s 3 : : 2 s s u r r r r r r r r r r r r r r r y y 2 : : : = = : r r r r r u 8 : $ : M { A A A ] s o @ ",
"$ o k A A A A S Z t 8 r r r t 8 : : : r r y 4 : : : r r r r r r r r r r r r r r r r r r r r 2 = : : 2 : 2 r r r r r y 5 : * : Z D D A A ] s o $ ",
"$ o c S A A A D Z r r r r r u 8 : = : : : : : : : : : : : 5 a r r r r r r r r r r r r r u t 2 : : 3 y y r r r r r r y 5 : * : Z { A A A S l o $ ",
"$ X n A A A A ] A r 8 r r r y 8 = : : : = : : : : : : = = 5 r r r r r r r r r r r r r r y r 2 : = 3 x u r r r r r r y 5 : * : M { A A A ] c o @ ",
"$ X n A A A A { M r 3 r r r x r = = = : 2 : : : : : : : : r a r r r y y r y r y y y y r y r 2 = = 3 y r r r 8 r r r y 5 : * : Z { A A A A c o $ ",
"$ X n A A A A A A v M M 8 2 3 3 r 8 5 2 : = 4 8 5 5 : = : 5 y y 3 2 3 3 3 2 3 3 3 3 3 r r r 8 3 3 8 r r y v Z v r r y r : * : Z { A A A ] c o $ ",
"+ o n ] A A A A A D k.j.3 * * 2 s y y 2 = : 5 s a r : = : r y a 8 = = : : : : = = = 2 y u r r y u r r r u S j.j.s 5 r 5 : * : M { S A A A c o $ ",
"+ X M A ] ] N A A D k.j.r * * 2 y y r : * = 5 y a 5 : = : r u s 3 = = = : : = : = = 2 u y r r r r r r r y A ] D s 4 r 5 : * : A { S S A ] c o $ ",
"+ X w s s v A A A v M Z 3 * = 3 y y r 3 3 2 5 y i r : = : 5 r 5 8 3 3 2 2 3 3 3 3 2 3 u y r r r r r r 8 u Z S S c s c r = * : c N v Z A A c o @ ",
"6 O O o O 3 S S A 3 8 y 3 : = 3 r r r r a r r r a 8 : : : : : * 3 x y r y y y y y r y r r r r r r r r r u A S A S D x.c * * : 8 r 8 v { ] s o $ ",
"u.g 6 , O 3 A S A r r y 3 : = 3 u u y y r y r r a 8 : : : : : = 2 y y r r r r r r r r r r r r r r r r r u S D S A S k.x * $ : r r 8 c { { v o @ ",
"0.t.7.k + 4 S S A r 8 t 2 : = 3 u u r r r r r r y 8 : : : : : : 3 y y r r r r r r r r r r r r r r r r r y A S S A A j.x * * : r u 8 c ] ] c o $ ",
"7.t.7.j O 6 S S Z r r t 2 : : : 2 : > 2 2 : 3 u r r : : : : : = 3 y r r r r r r r r r r r r 3 y r r r r r y y y Z D ] M 8 8 r r r r r u s 8 o $ ",
"7.7.7.j + 6 A D Z r r t 3 = : : = = : = : * 5 u r 5 : * : : : : 3 y y r r r r r r r r r r r r r r r r r r 8 3 3 v j.S M r r r r r r r 8 r 3 O @ ",
"7.7.7.j + 8 x.x.] t 8 i > = = : : 2 : : : : 3 r r 4 * * * = 2 = 3 s u y r r 8 r r r r r r r r r r r r r r r r r Z x.j.Z 3 r r r r r r s s r o @ ",
"7.7.7.e X * 8 5 8 t 8 i 3 3 3 2 : : : : : = r M c x r s s 2 : : 2 3 3 8 r r r r r r r r r r r r r r r r r r r 3 x M v x y r r r r r 8 > > - o O ",
"7.7.7.( , X   . $ p p r x y x 8 : : : 2 : * s x.S D { x.x.5 * : 2 : = : 8 u r r r r r r r r r r r r r r r r r r r 3 r 3 y r r r r r ; o X X @ e ",
"7.7.9.7.*.j w o $ p u r y r s r : : : : : * x b.{ D A { j.2 + = = : : : r u u r r r r r r r r r r r r r r r r r r r r r r r r r r r > O 6 e ! :.",
"7.7.:.*.:.7.#.o $ 9 r r r r y 8 * : : : : * s D A A A { S 8 : : 2 : : 2 8 r r r r r r r r r r r r r r r r r r r r r r r r r r r r t > @ k 9.9.9.",
"9.7.*.-.&.:.*.; O @ @ @ , s s 8 : : : : : : 5 u r a S S Z S A j.x = : : : : : : : : 2 r r 8 r r r r r r r r r r r r r r r r r r r r > + j g.7.:.",
"7.7.7.9.7.7.7./ , ; @ o 3 s t 8 = : : : : : 3 r 5 i S S A S D b.v = = : : = : : : = 2 y i r r r 3 y r r r r r r r r r r r r r r r r > + e 7.7.7.",
"7.7.7.7.9.t.7.7.*.*.< o 3 u t 8 : : > : : = 5 t r s D j.S S A j.x * = : : : : : : * 2 i t r r r r r r r r r r r r r r r r 8 r r r r > + e 9.9.7.",
"7.7.7.7.7.7.7.7.9.9.6 o 4 u u 8 : : : : : : 5 y r r x s x s x x s 3 8 5 5 5 8 5 8 5 8 r r r r r r r r r 8 ; ; : - - - - ; - - - - ; @ O e p.9.7.",
"7.7.7.7.7.7.9.7.7.t.< o 3 p s 8 : : : : : : 5 u r r r 5 r 5 5 r r y y r r r u t r u y r r 8 r r r r r r 8 O O O + $ + + + + + + + + + e *.7.7.7.",
"7.7.7.7.7.7.y.y.9.p.< o 4 p u 8 : = = : : : 5 u r r r r r r r r r r r r r r r r r r r r r r r i r r r r 8 O = k z ~ ~ ~ l l ~ / ~ ~ ~ *.:.7.7.7.",
"7.7.7.7.9.t.@.*.p.9.7 o 3 u t r 2 3 3 : : : 2 8 5 5 r r r r r r r r r r r r r r r r r r r r r p r r r r 8 O - ) *.C @.p.) [ y.t.&.:.7.7.9.7.7.7.",
"7.7.7.7.t.t.| | 7.:.< o 3 u r r a a y : : : : : = 2 y r r r r r r r r r r r r r r r r r r r r i r r r r 8 o ; P B B &.>.[ n &.=.*.9.9.7.7.7.7.7.",
"9.*.;.9.9.y.' B &.o.< o , s p p r i r : = : = : = : u u i r r r r r r r r t t t p t u t u u u u i i u u r o $ H h %.=.p._ b Q o.7.7.7.7.7.7.7.7.",
"9.7.7.7.t.t._ P o.;.< o 3 t r r r r r > : : : : : > a a r r r r r r r r 8 t 9 8 8 8 8 9 8 9 9 8 9 r 9 8 6 o $ E U &.9.p.#.B %.y.7.7.7.7.7.7.7.7.",
"t.t.7.7.7.7.9.y.5.5.e o O % & 6 r i r r r r r r r 5 : : : 8 a r r r r r ; ; $ % % % $ % & $ $ $ $ % $ $ # O , 9.y.t.9.7.y.y.0.9.7.7.9.e.w.*.9.7.",
"7.7.7.7.7.7.,.9.5.5.*.6 @ $ o ; r r r a y y r a x r = * = 5 u r r r r 8 o o $ @ $ @ $ @ $ $ $ $ $ $ $ $ $ ; ` 9.9.9.7.7.y.y.9.t.7.7.7.9.5.7.7.7.",
"7.t.9.,.9.t.7.7.9.y.y.) ~ ! O > a s s s s s u a x r = * = 8 u r r r t 8 O % ( ( ( ( ` _ ` ( ( ( +.( ( ( ( #.:.:.7.7.7.7.9.7.7.7.7.7.7.7.7.7.7.7.",
"7.9.7.*.y.9.7.7.t.y.y.*.) k o @ > ; : > : > : > : 2 5 4 2 r r r r r r r O & 9.9.7.7.7.:.:.y.9.7.9.7.:.9.7.7.9.9.7.7.7.7.t.9.9.7.7.7.7.7.7.7.7.7.",
"7.7.*.&.9.:.7.7.7.7.7.:. .^ < o o X X X o X X X X & u u u i r r r r r 8 O % 7.9.7.7.7.7.7.7.7.9.7.7.9.9.7.7.t.t.7.7.7.7.5.o.$.*.7.7.7.7.7.7.7.7.",
"7.7.7.7.7.7.7.7.7.7.9.7.} h $.w w g d d d d j q X - s u r i r i i r t r O @ 7.7.7.7.7.t.y.) @.,.9.7.7.y.t.7.7.0.7.7.0.*.#.&.;.7.7.7.7.7.7.7.9.5.",
"7.7.7.9.7.7.7.7.7.7.7.s.) G T Y %.y.9.t.7.7.7.( o $ 9 9 8 9 8 w 9 9 9 8 O @ :.y.9.9.9.9.9.:.) #.s.s.u.6.6.u.t.t.7.7.7.7.:.9.7.7.7.7.9.y.9.t.7.7.",
"7.7.7.7.7.7.7.7.7.7.7.0.=.W I %.y.t.7.t.7.7.7.( ; O @ @ @ @ # + @ @ @ @ O , :.9.:.#.y.y.9.7.n.f.#.&.u.) ) e.;.&.:.9.7.7.9.7.7.7.7.7.:.9.t.t.7.7.",
"7.7.7.7.7.7.7.7.7.7.7.7.t.y.0.9.9.7.7.7.7.7.7.*./ ; - ; - ; ; ; ; - ; ; , ` 9.9.<.) :.2.&.g.f.[ b ) h.@.n t.=.5.9.7.7.7.7.7.7.7.7.9.9.9.9.9.7.7.",
"7.7.7.7.7.7.7.7.7.7.7.7.7.0.y.y.7.7.7.7.7.7.7.&.&.$.t.7.:.7.7.7.7.7.7.:.7.9.9.7.y.#.^ &.V @.E J _ d.t.#.h T =.t.9.7.7.7.7.7.7.7.@.q.-.:.9.:.7.7.",
"t.t.t.y.y.y.9.t.7.7.7.7.7.7.7.7.7.7.7.7.7.7.9.y.:.%.:.9.7.7.7.7.7.:.7.7.7.7.7.7.s.&.P ,.*.L 1 R X.o.>.' F W d.t.0.t.7.7.7.7.y.7.) _ :.&.:.9.9.7.",
"t.t.y.#.<.y.7.7.7.7.7.7.7.7.7.7.7.7.7.7.7.7.:.9.9.9.9.7.7.7.7.7.7.7.9.7.7.7.7.7.9.&.T 7.e.&.$.$.d.e.0.*.@.&.>.t.7.7.7.7.7.7.7.s.;.P w.=.%.9.7.7.",
"t.7.s.Q Q e.7.7.7.7.7.7.7.7.7.7.7.7.7.7.7.7.7.7.7.7.7.7.7.7.7.7.7.7.7.7.7.7.7.7.t.7.e.7.7.9.e.e.0.7.7.7.q.7.t.t.7.7.7.7.7.7.7.0.&.R T =.-.7.7.7.",
"7.7.s.@.L %.0.7.7.7.7.7.7.7.7.7.7.7.7.7.7.7.7.7.7.7.7.7.7.7.7.7.7.7.7.7.7.7.7.7.7.t.7.7.7.7.7.7.7.7.7.7.9.7.7.t.7.7.7.7.7.7.7.0.:.K E =.9.7.7.7."
};
